<svg xmlns="http://www.w3.org/2000/svg" width="294.645" height="57.152" viewBox="0 0 294.645 57.152"><g transform="translate(0)"><path d="M370.047,47.32l2.435,4.241q3.148,5.456,6.3,10.917c1.1,1.883,2.165,3.766,3.264,5.638a.613.613,0,0,1-.055.784c-1,1.254-1.971,2.529-2.96,3.8-.3.387-.353.375-.6-.039q-5.633-9.769-11.271-19.52a.79.79,0,0,1,0-.906c.889-1.552,1.767-3.114,2.695-4.644a2.106,2.106,0,0,0,.127-.248Z" transform="translate(-234.725 -47.32)" fill="#74c48c"/><path d="M312.7,139.282q2.054-3.545,4.114-7.079c1.248-2.159,2.485-4.324,3.733-6.483l.221-.37c.127.237.243.442.353.652a10.266,10.266,0,0,0,3.032,3.567c.26.182.215.376.077.613q-2.253,3.865-4.495,7.758c-.232.4-.469.806-.7,1.209a.458.458,0,0,1-.447.26h-5.6a.458.458,0,0,1-.293-.061Z" transform="translate(-210.148 -82.261)" fill="#2978b9"/><path d="M330.607,76.087c-.182.663-.37,1.331-.552,1.993a42.176,42.176,0,0,0-1.287,6.82,27.229,27.229,0,0,0-.1,4.743,13.507,13.507,0,0,0,1.762,6.168,6.936,6.936,0,0,0,5.218,3.4,11.237,11.237,0,0,0,4.71-.486,25.5,25.5,0,0,0,7.3-3.777,50.8,50.8,0,0,0,5.522-4.561,87.911,87.911,0,0,0,8.962-9.89,149.04,149.04,0,0,0,9.907-14.247c.215-.342.254-.342.552-.083a19.95,19.95,0,0,0,3.915,2.838,3.806,3.806,0,0,0,.585.282c.26.094.182.21.077.37-1.833,2.717-3.667,5.445-5.627,8.073-2.446,3.275-4.97,6.488-7.692,9.52a75.182,75.182,0,0,1-12.5,11.409,33.872,33.872,0,0,1-9.255,4.782,16.2,16.2,0,0,1-5.8.845,9.707,9.707,0,0,1-6.98-3.109,12.149,12.149,0,0,1-2.711-5.439,18.547,18.547,0,0,1-.375-6.019,35.081,35.081,0,0,1,3.313-11.751c.3-.657.641-1.292.966-1.938Z" transform="translate(-216.367 -55.678)" fill="#fce84e"/><path d="M408.768,130.233h-2.584a.74.74,0,0,1-.74-.431c-2.209-3.865-4.418-7.731-6.676-11.6-1.474-2.535-2.965-5.053-4.418-7.6a.5.5,0,0,0-.514-.287H387.06c-.088,0-.21.05-.26-.044s.077-.155.138-.215c1.6-1.552,3.12-3.175,4.616-4.832a.873.873,0,0,1,.707-.353c.944,0,1.883,0,2.827.033a18.057,18.057,0,0,1,1.894,0,.475.475,0,0,1,.42.265l8.73,15.175,5.356,9.272c.055.088.121.166.182.254s.138.166.088.276-.171.094-.276.094h-2.761Z" transform="translate(-243.708 -73.091)" fill="#74c48c"/><path d="M340.782,91.54c1.5,2.584,2.965,5.13,4.418,7.67l3.943,6.77c.271.469.254.514-.21.806a29.924,29.924,0,0,1-3.865,2.021c-.442.188-.491.171-.734-.254l-3.357-5.837c-.193-.337-.237-.342-.431,0q-1.806,3.114-3.6,6.234c-.138.248-.271.265-.491.127a7.063,7.063,0,0,1-2.673-3.148c-.16-.337-.287-.69-.431-1.033a.635.635,0,0,1,.039-.618q3.634-6.284,7.267-12.574Z" transform="translate(-219.471 -67.121)" fill="#2978b9"/><path d="M357.23,69.46c.519.889,1.016,1.739,1.508,2.59q3,5.2,6.008,10.4,1.657,2.833,3.28,5.666a.42.42,0,0,1-.061.58c-1.149,1.176-2.336,2.314-3.54,3.44-.243.226-.3,0-.381-.144-.514-.895-1.016-1.8-1.53-2.695l-7.77-13.43c-.083-.133-.138-.282-.232-.4a1.011,1.011,0,0,1,0-1.314c.895-1.48,1.734-2.987,2.6-4.484Z" transform="translate(-228.954 -57.234)" fill="#74c48c"/><path d="M382.811,115.21c.685,1.193,1.353,2.347,2.021,3.5l6.339,11c.933,1.618,1.883,3.236,2.822,4.854.144.248.1.3-.221.3H388.36a.552.552,0,0,1-.6-.337q-1.436-2.518-2.894-5.031-3-5.2-6.008-10.4c-.083-.144-.116-.26.028-.381C380.226,117.6,381.546,116.469,382.811,115.21Z" transform="translate(-240.049 -77.721)" fill="#74c48c"/><path d="M368.433,141.128h-2.761a.552.552,0,0,1-.525-.3l-5.169-8.946c-.121-.2-.1-.3.116-.4a29.213,29.213,0,0,0,4.131-2.132c.381-.232.431-.221.652.16l6.455,11.2.033.055c.188.342.182.348-.193.348Z" transform="translate(-231.493 -83.986)" fill="#2978b9"/><path d="M427.572,87.637a5.042,5.042,0,0,1-1.1,3.407,3.468,3.468,0,0,1-2.789,1.2,4.76,4.76,0,0,1-2.159-.514v-.828a4.451,4.451,0,0,0,2.06.552,2.7,2.7,0,0,0,2.435-1.265,4.671,4.671,0,0,0,.613-2.5V80.6l.933-.491Z" transform="translate(-259.332 -62.003)" fill="#fbfbfb"/><path d="M444.509,84.9a3.153,3.153,0,0,1-2.38-.9,3.379,3.379,0,0,1-.872-2.446V72.6l.933-.491V81.5a2.207,2.207,0,0,0,2.457,2.535h.85v.834Z" transform="translate(-268.244 -58.421)" fill="#fbfbfb"/><path d="M446.79,84.45v-.834h1.441a2.2,2.2,0,0,0,2.457-2.535V78.15l.933-.491v3.424a2.207,2.207,0,0,0,2.457,2.535h.514c1.657,0,2.457-.845,2.457-2.535V77.36l.928-.5v4.219a2.207,2.207,0,0,0,2.457,2.535h.514a2.207,2.207,0,0,0,2.457-2.535V76.565l.933-.491v5.009q0,2.535,2.452,2.535h1.447v.834h-1.585A2.96,2.96,0,0,1,463.859,83,2.91,2.91,0,0,1,461.1,84.45h-.79A2.91,2.91,0,0,1,457.547,83a2.96,2.96,0,0,1-2.794,1.447h-.8A2.916,2.916,0,0,1,451.2,83a2.954,2.954,0,0,1-2.761,1.447Zm9.542-10.4a.552.552,0,0,1-.63-.652.624.624,0,0,1,1.248,0C456.951,73.831,456.746,74.052,456.332,74.052Zm.994-1.784a.514.514,0,0,1-.552-.591.508.508,0,0,1,.552-.58c.37,0,.552.193.552.58S457.7,72.269,457.326,72.269Zm1.011,1.784a.646.646,0,1,1,0-1.287c.409,0,.613.21.613.635S458.745,74.052,458.337,74.052Z" transform="translate(-270.834 -57.967)" fill="#fbfbfb"/><path d="M490.182,84.318h.85v.834h-.988a2.91,2.91,0,0,1-2.761-1.447,2.954,2.954,0,0,1-2.794,1.447H483.5v-.834h.828a2.2,2.2,0,0,0,2.457-2.535V77.266l.928-.491v5.009A2.22,2.22,0,0,0,490.182,84.318Zm-4.119-10.365a.646.646,0,0,1,0-1.287.552.552,0,0,1,.613.635C486.675,73.743,486.471,73.953,486.062,73.953Zm2,0c-.42,0-.63-.215-.63-.652a.624.624,0,1,1,1.248,0C488.68,73.743,488.47,73.953,488.061,73.953Z" transform="translate(-287.362 -58.668)" fill="#fbfbfb"/><path d="M495,88.487v-.834h1.447a2.207,2.207,0,0,0,2.457-2.535V82.186l.928-.491v3.424a2.208,2.208,0,0,0,2.457,2.535h.514a2.2,2.2,0,0,0,2.457-2.535V81.4l.933-.5v4.219a2.207,2.207,0,0,0,2.457,2.535h.513c1.657,0,2.457-.845,2.457-2.535V80.6l.928-.491v5.008a2.207,2.207,0,0,0,2.457,2.535h1.447v.834h-1.574a2.96,2.96,0,0,1-2.794-1.447,2.91,2.91,0,0,1-2.761,1.447h-.8a2.916,2.916,0,0,1-2.761-1.447,2.954,2.954,0,0,1-2.761,1.447h-.8a2.91,2.91,0,0,1-2.761-1.447,2.954,2.954,0,0,1-2.794,1.447Z" transform="translate(-292.643 -62.003)" fill="#fbfbfb"/><path d="M544.623,87.488h.85v.834h-.988a2.906,2.906,0,0,1-2.816-1.508,3.457,3.457,0,0,1-6.179,0,2.893,2.893,0,0,1-2.811,1.508h-.988v-.834h.85c1.657,0,2.457-.845,2.457-2.535v-.712a4.99,4.99,0,0,1,1.066-3.446,3.192,3.192,0,0,1,2.518-1.049,3.148,3.148,0,0,1,2.761,1.347,5.351,5.351,0,0,1,.834,3.148v.712Q542.165,87.488,544.623,87.488Zm-6.041.4a2.286,2.286,0,0,0,1.933-.988,4.418,4.418,0,0,0,.718-2.656,4.49,4.49,0,0,0-.751-2.794,2.507,2.507,0,0,0-3.865.083,4.522,4.522,0,0,0-.7,2.711Q535.925,87.886,538.582,87.886Z" transform="translate(-309.19 -61.838)" fill="#fbfbfb"/><path d="M554.5,84.9v-.834h.828c1.657,0,2.457-.845,2.457-2.535V72.6l.928-.491v9.448a3.363,3.363,0,0,1-.928,2.513,3.214,3.214,0,0,1-2.319.834Z" transform="translate(-323.313 -58.421)" fill="#fbfbfb"/><path d="M568.63,84.9V72.6l.928-.491V84.9Z" transform="translate(-326.205 -58.421)" fill="#fbfbfb"/><path d="M602.894,87.653h.458v.834h-.6a2.938,2.938,0,0,1-2.761-1.447,3,3,0,0,1-2.811,1.447H590.1a2.971,2.971,0,0,1-2.264-.889A3.38,3.38,0,0,1,587,85.179V82.385l.933-.491v3.125q0,2.634,2.452,2.634h6.7q2.435,0,2.435-2.634V80.6l.928-.491v5.008A2.2,2.2,0,0,0,602.894,87.653Zm-10.2,3.015a.552.552,0,0,1,.613.63c0,.436-.2.657-.613.657a.646.646,0,1,1,0-1.287Z" transform="translate(-334.427 -62.003)" fill="#fbfbfb"/><path d="M621.172,84.318h.85v.834h-.988a2.91,2.91,0,0,1-2.761-1.447,2.96,2.96,0,0,1-2.794,1.447h-.988v-.834h.834c1.657,0,2.457-.845,2.457-2.535V77.266l.928-.491v5.009A2.212,2.212,0,0,0,621.172,84.318Zm-4.12-10.365a.646.646,0,0,1,0-1.287.552.552,0,0,1,.613.635C617.665,73.743,617.461,73.953,617.052,73.953Zm2,0a.646.646,0,0,1,0-1.287.552.552,0,0,1,.613.635C619.664,73.743,619.46,73.953,619.051,73.953Z" transform="translate(-346.741 -58.668)" fill="#fbfbfb"/><path d="M636.983,84.089h.652v.834h-.8a3.415,3.415,0,0,0-5.55,0H626v-.834h5.191q2.408,0,2.413-2.634v-.237a3.037,3.037,0,0,0-1.248-2.612,4.185,4.185,0,0,0-2.535-.734,6.118,6.118,0,0,0-2.1.375v-.928l4.655-5.169h.988l-4.274,4.832a6.1,6.1,0,0,1,.85-.061,4.633,4.633,0,0,1,3.424,1.287,4.042,4.042,0,0,1,1.171,3.01v.337Q634.526,84.089,636.983,84.089Z" transform="translate(-351.895 -58.439)" fill="#fbfbfb"/><path d="M648.214,83.081a3.275,3.275,0,0,1,.972-2.551,3.562,3.562,0,0,1,4.97.552,4.882,4.882,0,0,1,.834,2.971,4.711,4.711,0,0,1-1.049,3.269,3.164,3.164,0,0,1-2.435,1.011,2.993,2.993,0,0,1-2.833-1.447,2.96,2.96,0,0,1-2.794,1.447h-.988V87.5h.85c1.657,0,2.457-.845,2.457-2.535Zm.928,1.883A2.208,2.208,0,0,0,651.6,87.5a2.109,2.109,0,0,0,1.811-.917,4.269,4.269,0,0,0,.663-2.529,4.042,4.042,0,0,0-.751-2.612,2.313,2.313,0,0,0-1.9-.85q-2.275,0-2.281,2.651Z" transform="translate(-360.354 -61.849)" fill="#fbfbfb"/><path d="M475.677,122.023h.856v.828h-.994a3.219,3.219,0,0,1-2.314-.828,4.385,4.385,0,0,1-1.53,3.462,5.174,5.174,0,0,1-3.462,1.132,4.594,4.594,0,0,1-3.865-1.745,5.047,5.047,0,0,1-1.049-3.208,4.865,4.865,0,0,1,.911-2.987l.928-.2a5.522,5.522,0,0,0-1.011,3.186,4.037,4.037,0,0,0,1.209,3.01,3.915,3.915,0,0,0,2.855,1.1,4.026,4.026,0,0,0,3.126-1.209,3.645,3.645,0,0,0,.933-2.59v-7.007l.933-.5v5.014A2.226,2.226,0,0,0,475.677,122.023Zm-7.482-8.377a.7.7,0,1,1,.613-.657C468.807,113.425,468.6,113.646,468.194,113.646Z" transform="translate(-278.265 -76.439)" fill="#fff"/><path d="M485.09,124.577v-.828h1.447a2.2,2.2,0,0,0,2.457-2.535V118.3l.928-.5v3.429a2.208,2.208,0,0,0,2.457,2.535h.514a2.207,2.207,0,0,0,2.457-2.535V117.5l.933-.491v4.219a2.207,2.207,0,0,0,2.457,2.535h.514c1.657,0,2.457-.845,2.457-2.535V116.7l.928-.5v5.014a2.207,2.207,0,0,0,2.457,2.535h1.447v.828h-1.585a2.965,2.965,0,0,1-2.794-1.441,2.916,2.916,0,0,1-2.761,1.441h-.8a2.921,2.921,0,0,1-2.761-1.441,2.96,2.96,0,0,1-2.761,1.441h-.867a2.916,2.916,0,0,1-2.761-1.441,2.96,2.96,0,0,1-2.794,1.441Z" transform="translate(-288.16 -78.164)" fill="#fff"/><path d="M534.7,123.587h.895v.828h-.911a7.51,7.51,0,0,1-2.678-.387,4.678,4.678,0,0,1-1.839-1.375,10.022,10.022,0,0,1-5.9,1.762H521.79v-.828h2.49a8.648,8.648,0,0,0,7.135-3.208q-1.861-3.7-4.655-3.705a4.406,4.406,0,0,0-3.208,1.7v-.988a4.782,4.782,0,0,1,3.313-1.546q3.048,0,5.307,4.164v.751a8.832,8.832,0,0,1-1.447,1.485,3.783,3.783,0,0,0,1.574,1.049,7.791,7.791,0,0,0,2.4.3Z" transform="translate(-304.713 -78.003)" fill="#fff"/><path d="M557.563,123.588h.856v.828h-.994a2.893,2.893,0,0,1-2.811-1.5,3.462,3.462,0,0,1-6.179,0,2.914,2.914,0,0,1-2.811,1.5h-.994v-.828h.85a2.2,2.2,0,0,0,2.457-2.535v-.707a5.009,5.009,0,0,1,1.071-3.451,3.2,3.2,0,0,1,2.518-1.049,3.17,3.17,0,0,1,2.761,1.347,5.423,5.423,0,0,1,.834,3.153v.712A2.191,2.191,0,0,0,557.563,123.588Zm-6.036.392a2.264,2.264,0,0,0,1.927-.988,4.418,4.418,0,0,0,.723-2.651,4.478,4.478,0,0,0-.751-2.794,2.507,2.507,0,0,0-3.865.077,4.589,4.589,0,0,0-.69,2.717Q548.871,123.975,551.527,123.981Z" transform="translate(-315.042 -78.004)" fill="#fff"/><path d="M567.44,121.013v-.828h.861q2.452,0,2.452-2.535v-8.913l.933-.5v9.426a3.352,3.352,0,0,1-.933,2.518,3.219,3.219,0,0,1-2.314.828Z" transform="translate(-325.672 -74.6)" fill="#fff"/><path d="M581.58,121.013V108.737l.928-.5v12.773Z" transform="translate(-332.004 -74.6)" fill="#fff"/><path d="M589.18,124.393l.436-.828H593.5a1.745,1.745,0,0,0,1.441-.552,2.971,2.971,0,0,0,.42-1.817,4.826,4.826,0,0,0-2.733-4.572l.491-.834a5.751,5.751,0,0,1,3.17,5.213,2.208,2.208,0,0,0,2.457,2.535h.85v.828h-.988a3.015,3.015,0,0,1-2.673-1.265,2.342,2.342,0,0,1-2.3,1.265Z" transform="translate(-335.407 -77.98)" fill="#fff"/><path d="M612.632,123.749h.856v.828h-.994a2.916,2.916,0,0,1-2.761-1.441,2.96,2.96,0,0,1-2.794,1.441h-.988v-.828h.85a2.2,2.2,0,0,0,2.457-2.535V116.7l.933-.5v5.014Q610.18,123.749,612.632,123.749Zm-3.269,3.01a.552.552,0,0,1,.618.635c0,.436-.2.652-.618.652a.568.568,0,0,1-.63-.652.552.552,0,0,1,.63-.635Z" transform="translate(-342.917 -78.164)" fill="#fff"/><path d="M627.838,123.585v.828h-10.4v-.828h4.142a4.363,4.363,0,0,1-1.623-3.683,3.932,3.932,0,0,1,1.325-3.131,3.783,3.783,0,0,1,2.5-.933,3.617,3.617,0,0,1,3.109,1.546v1.011a3.446,3.446,0,0,0-3.01-1.723,2.8,2.8,0,0,0-2.159.9,3.341,3.341,0,0,0-.834,2.347,3.716,3.716,0,0,0,.994,2.695,3.275,3.275,0,0,0,2.474.972Z" transform="translate(-348.062 -78.001)" fill="#fff"/><path d="M129.052,88.384a3.391,3.391,0,0,1-2.59-1.022A3.832,3.832,0,0,1,125.5,84.6V81.41l1.066-.552v3.573q0,3.015,2.805,3.015h7.654q2.761,0,2.761-3.015V79.372l1.066-.552V84.6a3.5,3.5,0,0,1-3.738,3.783Zm2.4-10.525a.652.652,0,0,1-.707-.751.718.718,0,1,1,1.43,0C132.155,77.605,131.917,77.859,131.448,77.859Zm2.286,0a.652.652,0,0,1-.723-.751.718.718,0,1,1,1.43,0C134.441,77.605,134.2,77.859,133.734,77.859Z" transform="translate(-125.49 -60.332)" fill="#fff"/><path d="M159.08,86.289V72.252l1.06-.552V86.289Z" transform="translate(-140.531 -58.237)" fill="#fff"/><path d="M170.163,89.387a5.76,5.76,0,0,1-1.248,3.9,3.981,3.981,0,0,1-3.192,1.381,5.445,5.445,0,0,1-2.463-.591v-.95a5.042,5.042,0,0,0,2.352.607,3.081,3.081,0,0,0,2.761-1.447,5.318,5.318,0,0,0,.7-2.849V81.352l1.066-.552Z" transform="translate(-142.403 -62.312)" fill="#fff"/><path d="M189.507,86.289a3.606,3.606,0,0,1-2.717-1.033,3.865,3.865,0,0,1-.994-2.794V72.252l1.066-.552V82.44q0,2.9,2.805,2.9h.972v.95Z" transform="translate(-152.492 -58.237)" fill="#fff"/><path d="M192.11,85.741v-.95h1.657c1.866,0,2.805-.966,2.805-2.9V78.54l1.066-.552V81.9q0,2.9,2.805,2.9h.585q2.811,0,2.811-2.9V77.634l1.06-.552V81.9q0,2.9,2.811,2.9h.585q2.811,0,2.811-2.9V76.729l1.06-.552v5.715c0,1.933.939,2.9,2.805,2.9h1.657v.95h-1.811a3.381,3.381,0,0,1-3.192-1.657,3.313,3.313,0,0,1-3.17,1.657h-.906a3.331,3.331,0,0,1-3.17-1.657,3.381,3.381,0,0,1-3.192,1.657h-.906a3.335,3.335,0,0,1-3.17-1.657,3.381,3.381,0,0,1-3.192,1.657Zm10.912-11.883c-.48,0-.723-.248-.723-.751a.641.641,0,0,1,.723-.723.63.63,0,0,1,.7.723C203.723,73.609,203.491,73.857,203.022,73.857Zm1.1-2.038a.591.591,0,0,1-.657-.679.58.58,0,0,1,.657-.657.552.552,0,0,1,.635.657c.028.453-.182.679-.607.679Zm1.176,2.038c-.48,0-.723-.248-.723-.751a.641.641,0,0,1,.723-.723.63.63,0,0,1,.7.723C206.009,73.609,205.777,73.857,205.3,73.857Z" transform="translate(-155.322 -57.689)" fill="#fff"/><path d="M241.743,85.616h.977v.95h-1.1a3.331,3.331,0,0,1-3.17-1.657,3.388,3.388,0,0,1-3.192,1.657h-1.1v-.95h.972q2.805,0,2.805-2.9V77.554L238.993,77v5.715Q238.938,85.616,241.743,85.616Zm-4.7-11.817a.652.652,0,0,1-.729-.751.641.641,0,0,1,.729-.723.63.63,0,0,1,.7.723C237.739,73.528,237.5,73.8,237.038,73.8Zm2.286,0c-.486,0-.723-.248-.723-.751a.641.641,0,0,1,.723-.723.63.63,0,0,1,.7.723C240.025,73.528,239.788,73.8,239.324,73.8Z" transform="translate(-174.621 -58.514)" fill="#fff"/><path d="M247.21,90.364v-.95h1.657q2.811,0,2.805-2.9V83.163l1.066-.552v3.915q0,2.9,2.805,2.9h.591c1.866,0,2.805-.966,2.805-2.9V82.258L260,81.706v4.821q0,2.9,2.805,2.9h.591c1.866,0,2.805-.966,2.805-2.9V81.352l1.06-.552v5.737a3.866,3.866,0,0,1-1.06,2.877,3.694,3.694,0,0,1-2.651.95h-.906a3.335,3.335,0,0,1-3.17-1.657,3.373,3.373,0,0,1-3.192,1.657h-.911a3.363,3.363,0,0,1-3.164-1.657,3.381,3.381,0,0,1-3.192,1.657Z" transform="translate(-180.549 -62.312)" fill="#fff"/><path d="M301.579,85.339h.972v.95h-1.132a3.335,3.335,0,0,1-3.17-1.657,3.381,3.381,0,0,1-3.192,1.657H288l.5-.95H292.1V75.179l1.066-.552V85.339h1.723c1.866,0,2.805-.966,2.805-2.9V72.252l1.06-.552V82.44Q298.768,85.339,301.579,85.339Z" transform="translate(-198.985 -58.237)" fill="#fff"/><path d="M311.89,86.289v-.95h.972q2.811,0,2.811-2.9V72.252l1.06-.552V82.462a3.865,3.865,0,0,1-1.06,2.877,3.711,3.711,0,0,1-2.651.95Z" transform="translate(-209.762 -58.237)" fill="#fff"/><path d="M157.659,121.692h.977v.95H157.5a3.336,3.336,0,0,1-3.418-2.1,3.865,3.865,0,0,1-3.076,1.425,3.523,3.523,0,0,1-2.987-1.447,4.97,4.97,0,0,1-.928-3.1,4.854,4.854,0,0,1,1.2-3.44,3.551,3.551,0,0,1,2.717-1.132,3.689,3.689,0,0,1,2.761,1.1v-1.5l1.066-.552v6.9Q154.854,121.692,157.659,121.692Zm-3.865-6.45a3.379,3.379,0,0,0-2.761-1.452,2.49,2.49,0,0,0-2.06,1.011,4.721,4.721,0,0,0,0,5.229,2.5,2.5,0,0,0,2.071.983,3.451,3.451,0,0,0,2.827-1.5c-.028-.3-.044-.552-.044-.7Zm-2.987-5.39a.646.646,0,0,1-.723-.745.716.716,0,1,1,1.425,0c-.006.5-.243.745-.707.745Zm2.286,0a.646.646,0,0,1-.723-.745.716.716,0,1,1,1.425,0c-.006.5-.243.745-.679.745Z" transform="translate(-135.162 -74.661)" fill="#fff"/><path d="M173.184,125.509h.972v.95h-1.132a3.324,3.324,0,0,1-3.17-1.657,3.381,3.381,0,0,1-3.192,1.657H165.53v-.95h.972q2.811,0,2.811-2.9v-5.158l1.06-.552v5.726Q170.373,125.509,173.184,125.509Zm-4.915,3.44c.469,0,.7.248.7.745s-.232.723-.7.723a.641.641,0,0,1-.723-.723.652.652,0,0,1,.723-.745Zm2.286,0c.469,0,.7.248.7.745s-.232.723-.7.723a.641.641,0,0,1-.723-.723.652.652,0,0,1,.723-.745Z" transform="translate(-143.419 -78.478)" fill="#fff"/><path d="M178.69,126.459v-.95h1.657q2.805,0,2.811-2.9v-3.346l1.06-.552v3.915c0,1.933.939,2.9,2.805,2.9h.591q2.805,0,2.805-2.9v-4.252l1.066-.552v4.821q0,2.9,2.805,2.9h.585q2.805,0,2.805-2.9v-5.191l1.066-.552v5.748a3.827,3.827,0,0,1-1.066,2.877,3.667,3.667,0,0,1-2.645.95h-.906a3.324,3.324,0,0,1-3.17-1.657,3.381,3.381,0,0,1-3.192,1.657h-.906a3.331,3.331,0,0,1-3.17-1.657,3.388,3.388,0,0,1-3.192,1.657Z" transform="translate(-149.312 -78.478)" fill="#fff"/><path d="M219.11,126.262l.5-.95h4.456a1.993,1.993,0,0,0,1.657-.6,3.418,3.418,0,0,0,.475-2.071,5.522,5.522,0,0,0-3.125-5.229l.552-.95a6.551,6.551,0,0,1,3.617,5.953q0,2.9,2.811,2.9h.972v.95h-1.132a3.446,3.446,0,0,1-3.054-1.447,2.673,2.673,0,0,1-2.628,1.447Z" transform="translate(-167.826 -78.28)" fill="#fff"/><path d="M245.9,121.693h.972v.95h-1.132a3.331,3.331,0,0,1-3.17-1.657,3.381,3.381,0,0,1-3.192,1.657H238.25v-.95h.966q2.811,0,2.811-2.9v-5.158l1.06-.552v5.726Q243.082,121.693,245.9,121.693Zm-3.512-11.839a.652.652,0,0,1-.723-.745.641.641,0,0,1,.723-.723c.469,0,.7.237.7.723S242.861,109.854,242.392,109.854Z" transform="translate(-176.475 -74.662)" fill="#fff"/><path d="M266.8,124.671h.972v.95h-1.1a3.4,3.4,0,0,1-3.17-1.657,3.388,3.388,0,0,1-3.192,1.657h-2.038a4.622,4.622,0,0,1-1.452-.226,4.589,4.589,0,0,1-1.447.226H251.45v-.95h3.865a4.02,4.02,0,0,1-1.7-3.4,3.91,3.91,0,0,1,.552-2.1,5.312,5.312,0,0,1,2.016-3.264,4.605,4.605,0,0,1,2.761-.878,4.765,4.765,0,0,1,3.645,1.585,5.362,5.362,0,0,1,1.4,3.821v1.336Q263.991,124.671,266.8,124.671Zm-10.006-.2a3.065,3.065,0,0,0,2.286-3.192,2.8,2.8,0,0,0-.618-1.911,2.292,2.292,0,0,0-3.313,0,2.805,2.805,0,0,0-.624,1.911,3.065,3.065,0,0,0,2.27,3.192Zm3.374.2c1.844,0,2.761-1.005,2.761-3.01v-1.226a4.418,4.418,0,0,0-1.425-3.462,3.8,3.8,0,0,0-2.623-.994,3.5,3.5,0,0,0-3.352,2.016,3.644,3.644,0,0,1,1.265-.226,2.954,2.954,0,0,1,2.314.961,3.694,3.694,0,0,1,.856,2.546,3.97,3.97,0,0,1-1.717,3.4Z" transform="translate(-182.459 -77.639)" fill="#fff"/><path d="M278.54,122.384v-.95h.977q2.805,0,2.805-2.9V108.352l1.066-.552v10.774a3.865,3.865,0,0,1-1.066,2.877,3.667,3.667,0,0,1-2.651.95Z" transform="translate(-194.684 -74.403)" fill="#fff"/><path d="M294.7,122.384V108.352l1.06-.552v14.6Z" transform="translate(-201.981 -74.403)" fill="#fff"/></g></svg>