<?xml version="1.0" encoding="utf-8"?>
<!-- Generator: Adobe Illustrator 26.0.0, SVG Export Plug-In . SVG Version: 6.00 Build 0)  -->
<svg version="1.1" xmlns="http://www.w3.org/2000/svg" xmlns:xlink="http://www.w3.org/1999/xlink" x="0px" y="0px"
	 viewBox="0 0 86 86" style="enable-background:new 0 0 86 86;" xml:space="preserve">
<style type="text/css">
	.st0{fill:#FFFFFF;}
	.st1{fill:#3D3D3C;}
	.st2{fill:#0B706E;}
	.st3{fill:#86BD46;}
</style>
<g id="Layer_2">
	<circle class="st0" cx="43" cy="43" r="43"/>
</g>
<g id="Layer_1">
	<path class="st1" d="M62.1,58.6v3.1c0,1-0.8,1.9-1.9,1.9H56V54h-1.6c-0.3,0-0.6,0.3-0.6,0.6c0,0,0,0,0,0v9.1h-4.5v-1.3
		c0-3-2.4-5.4-5.4-5.4h-1.8v1.5c0,0.3,0.3,0.6,0.6,0.6c0,0,0,0,0,0h1.3c1.8,0,3.3,1.4,3.3,3.2c0,0,0,0,0,0.1v1.3h-5.5
		c-0.3,0-0.6,0.3-0.6,0.6c0,0,0,0,0,0v1.5h19.1c2.2,0,4-1.8,4-4v-3.7h-1.5C62.4,58.1,62.1,58.3,62.1,58.6
		C62.1,58.6,62.1,58.6,62.1,58.6"/>
	<path class="st1" d="M39.4,63.7H28.2c-1,0-1.9-0.8-1.9-1.9v-3.1c0-0.3-0.3-0.6-0.6-0.6c0,0,0,0,0,0h-1.5v3.7c0,2.2,1.8,4,4,4l0,0
		H40v-1.5C39.9,63.9,39.7,63.7,39.4,63.7"/>
	<path class="st1" d="M58.2,66.7c-0.6,0-1.1,0.5-1.1,1.1c0,0.6,0.5,1.1,1.1,1.1c0.6,0,1.1-0.5,1.1-1.1l0,0
		C59.3,67.2,58.8,66.7,58.2,66.7"/>
	<path class="st1" d="M33.9,66.7c-0.6,0-1.1,0.5-1.1,1.1c0,0.6,0.5,1.1,1.1,1.1s1.1-0.5,1.1-1.1l0,0C35,67.2,34.5,66.7,33.9,66.7"/>
	<path class="st1" d="M31.4,66.7c-0.6,0-1.1,0.5-1.1,1.1c0,0.6,0.5,1.1,1.1,1.1c0.6,0,1.1-0.5,1.1-1.1l0,0
		C32.5,67.2,32,66.7,31.4,66.7"/>
	<path class="st1" d="M25.2,72.4c0.5-0.7,1.3-1.2,2.1-1.1c1.5-0.1,2.8,1,2.9,2.5c0,0.1,0,0.3,0,0.4c0.1,1.5-1,2.8-2.6,2.9
		c-0.1,0-0.2,0-0.3,0c-0.9,0-1.7-0.4-2.1-1.1v1h-0.9v-7.6h0.9L25.2,72.4z M25.2,74.2c-0.1,1.1,0.8,2,1.9,2.1c0,0,0.1,0,0.1,0
		c1.1,0,2.1-0.9,2.1-2.1c0-1.1-0.9-2.1-2.1-2.1c-1.1,0-2,0.8-2,1.9C25.2,74.1,25.2,74.1,25.2,74.2"/>
	<path class="st1" d="M36.7,77v-1c-0.4,0.7-1.2,1.2-2.1,1.1c-1.5,0.1-2.8-1.2-2.9-2.7c0-0.1,0-0.2,0-0.3c-0.1-1.5,1.1-2.8,2.6-2.9
		c0.1,0,0.2,0,0.3,0c0.9,0,1.7,0.4,2.1,1.1v-1h0.9V77L36.7,77L36.7,77z M34.7,72.2c-1.1,0.1-2,1.1-1.9,2.2c0.1,1,0.9,1.9,1.9,1.9
		C37.4,76.3,37.4,72.1,34.7,72.2z"/>
	<rect x="40" y="69.5" class="st1" width="0.9" height="7.6"/>
	<path class="st1" d="M48,77v-1c-0.4,0.7-1.2,1.2-2.1,1.1c-1.5,0.1-2.9-1.2-2.9-2.7c0-0.1,0-0.2,0-0.3c-0.1-1.5,1.1-2.8,2.6-2.9
		c0.1,0,0.2,0,0.3,0c0.8,0,1.6,0.4,2.1,1.1v-1h0.9V77L48,77L48,77z M45.9,72.2c-1.1,0.1-2,1.1-1.9,2.2c0.1,1,0.9,1.9,1.9,1.9
		C48.6,76.3,48.6,72.1,45.9,72.2z"/>
	<path class="st1" d="M56.8,69.5V77h-0.9v-1c-0.5,0.7-1.3,1.2-2.1,1.1c-1.5,0.1-2.8-1.1-2.9-2.6c0-0.1,0-0.2,0-0.3
		c-0.1-1.5,1-2.8,2.4-2.9c0.1,0,0.3,0,0.4,0c0.9,0,1.7,0.4,2.1,1.1v-2.9H56.8z M53.8,72.2c-1.1,0-2.1,0.9-2.1,2.1s0.9,2.1,2.1,2.1
		c1.1,0,2.1-0.9,2.1-2.1S54.9,72.2,53.8,72.2z"/>
	<polygon class="st1" points="63.2,71.4 62,74.3 61.3,75.9 60.7,74.3 59.6,71.4 58.6,71.4 60.8,77 59.9,79.2 60.9,79.2 64.2,71.4 	
		"/>
	<path class="st2" d="M43.9,7.9V13c-0.2,0.2-0.8,1-1.5,3.5c0,0.1-0.1,0.1-0.1,0.1c0,0,0,0,0,0c-0.4-0.4-2.4-1.6-5.7-0.4
		c-0.1,0-0.1,0.1,0,0.2c0.8,0.3,1.5,0.8,2.1,1.4c0,0,0,0.1-0.1,0.1c-1.2,0-8.3,0.1-13.7,8.7c0,0.1,0.1,0.2,0.1,0.1
		c1.3-0.9,6.2-4.1,10.4-3.8c0,0,0.1,0.1,0.1,0.1c0,0,0,0-0.1,0.1c-1.5,0.7-8.3,4.4-9.8,14.9c0,0,0.1,0.1,0.1,0.1c0,0,0,0,0.1-0.1
		c0.9-1.7,4.8-7.9,10.1-10.1c0.1,0,0.1,0.1,0.1,0.1c-1,1.3-5.1,6.9-4.2,16.2c0,0.1,0.1,0.1,0.2,0c0.5-1.8,2.9-8.8,6.8-13.1
		c0.1-0.1,0.2,0,0.1,0.1c-0.2,1.6-1.4,9.5,0,15.7c0,0,0.1,0.1,0.1,0.1c0,0,0,0,0.1-0.1c0.2-2.3,1.2-11.6,3.3-14.4c0,0,0.1,0,0.1,0
		h0.1l0.4,5.7h-0.8l0.6,7.6H42l0.4,7.5C29.9,51.8,20.8,40.8,22,28.3C23.1,16.9,32.5,8.1,43.9,7.9"/>
	<path class="st3" d="M44,7.9V13c0.2,0.2,0.8,1,1.5,3.5c0,0,0.1,0.1,0.2,0c0.4-0.4,2.4-1.6,5.7-0.4c0.1,0,0.1,0.1,0,0.2
		c-0.8,0.3-1.5,0.8-2.1,1.4c-0.1,0,0,0.1,0.1,0.1c1.2,0,8.3,0.1,13.7,8.7c0,0,0,0.1,0,0.1c0,0-0.1,0-0.1,0
		c-1.3-0.9-6.2-4.1-10.4-3.8c-0.1,0-0.1,0.1,0,0.2c1.5,0.7,8.3,4.4,9.8,14.9c0,0.1-0.1,0.1-0.2,0c-0.9-1.7-4.8-7.9-10.1-10.1
		c0,0-0.1,0-0.1,0.1c0,0,0,0.1,0,0.1c1,1.3,5.1,6.9,4.2,16.2c0,0.1-0.1,0.1-0.2,0c-0.6-1.8-2.9-8.8-6.8-13.1c-0.1-0.1-0.2,0-0.1,0.1
		c0.2,1.6,1.4,9.5,0.1,15.7c0,0-0.1,0.1-0.1,0.1c0,0,0,0-0.1-0.1c-0.2-2.3-1.2-11.6-3.3-14.4c0,0-0.1,0-0.1,0h-0.1L45,38h0.8
		l-0.6,7.6H46l-0.4,7.5C58.1,51.9,67.2,40.8,66,28.4C64.9,17,55.5,8.2,44,7.9"/>
</g>
</svg>
