<svg xmlns="http://www.w3.org/2000/svg" viewBox="0 0 500 500"><defs><style>.cls-1{fill:#fff;}.cls-2{fill:#314056;}.cls-3{fill:#38475b;}.cls-4{fill:#37455b;}.cls-5{fill:#384357;}.cls-6{fill:#384457;}.cls-7{fill:#344254;}.cls-8{fill:#39475b;}.cls-9{fill:#2b3c56;}.cls-10{fill:#303e53;}.cls-11{fill:#364156;}.cls-12{fill:#354053;}.cls-13{fill:#364256;}.cls-14{fill:#353f54;}.cls-15{fill:#323f53;}.cls-16{fill:#344156;}.cls-17{fill:#354254;}.cls-18{fill:#475466;}.cls-19{fill:#2d3c4e;}.cls-20{fill:#3c485c;}.cls-21{fill:#3b495d;}.cls-22{fill:#27384c;}.cls-23{fill:#2f3648;}.cls-24{fill:#49546c;}.cls-25{fill:#4a5564;}.cls-26{fill:#424d60;}.cls-27{fill:#454d61;}.cls-28{fill:#3c4257;}.cls-29{fill:#3b4451;}.cls-30{fill:#394552;}.cls-31{fill:#3a4453;}.cls-32{fill:#3b4353;}.cls-33{fill:#4b546a;}.cls-34{fill:#3b4356;}.cls-35{fill:#3e475f;}.cls-36{fill:#2f3f57;}.cls-37{fill:#314058;}.cls-38{fill:#324056;}.cls-39{fill:#38465b;}.cls-40{fill:#333f55;}.cls-41{fill:#334156;}.cls-42{fill:#303d50;}.cls-43{fill:#323d54;}.cls-44{fill:#da5;}.cls-45{fill:#233044;}.cls-46{fill:#2e3e57;}.cls-47{fill:#253449;}.cls-48{fill:#2b3951;}.cls-49{fill:#28374d;}.cls-50{fill:#26354a;}.cls-51{fill:#2a3850;}.cls-52{fill:#33435b;}.cls-53{fill:#243246;}.cls-54{fill:#daa754;}.cls-55{fill:#3b4e6c;}.cls-56{fill:#374965;}.cls-57{fill:#3c4f6d;}.cls-58{fill:#344661;}.cls-59{fill:#2f3e56;}.cls-60{fill:#32445f;}.cls-61{fill:#ddae62;}.cls-62{fill:#2b3950;}.cls-63{fill:#2d3c55;}.cls-64{fill:#304058;}.cls-65{fill:#dca955;}.cls-66{fill:#28364a;}.cls-67{fill:#e1b56e;}.cls-68{fill:#d9a654;}.cls-69{fill:#daa755;}.cls-70{fill:#d8a654;}.cls-71{fill:#d9a754;}.cls-72{fill:#e6c185;}.cls-73{fill:#e9cb9a;}.cls-74{fill:#e5bd7f;}.cls-75{fill:#ebcc9b;}.cls-76{fill:#ebca93;}.cls-77{fill:#efd9b7;}.cls-78{fill:#e4c48f;}.cls-79{fill:#dab069;}.cls-80{fill:#edd5b0;}.cls-81{fill:#edd6b0;}.cls-82{fill:#0d1c2f;}</style></defs><g id="Layer_2" data-name="Layer 2"><circle class="cls-1" cx="250" cy="250" r="250"/></g><g id="Layer_1" data-name="Layer 1"><path class="cls-2" d="M93,320.92c-.59,6.73-5.57,9.85-12,7.49-3.58-1.31-5.45-10.63-2.6-13.15a2,2,0,0,1,1.52-.32c1.15.21.48,1,.4,1.59-.17,1.4-.28,2.82-.36,4.23-.19,3.29.76,5.57,4.64,5.57,4.19,0,5.62-1.28,5.68-5.5,0-3.55-.08-7.1.07-10.64,0-1.17-1-3.37,1.35-3.23,2.17.12,1,2.23,1.14,3.44a45.78,45.78,0,0,1,0,5.11c0,2.44,1.26,3.49,3.68,3.68s3.71-.36,3.42-3.18a69.87,69.87,0,0,1-.06-7.24c0-1.11.26-2.06,1.6-1.94,1.06.09,1.26.94,1.26,1.87,0,2.41,0,4.83,0,7.24.08,3.72,2.87,3,5.22,3.26,3,.34,2.77-1.45,2.7-3.38-.06-1.56,0-3.13,0-4.69,0-.91-.27-2.16,1.36-2.05s1.16,1.33,1.2,2.23a41.19,41.19,0,0,0,.1,5.1c.32,1.93,1.77,2.84,3.72,2.71,2.2-.14,1.15-1.89,1.26-2.93.17-1.68,0-3.4.06-5.1,0-1-.18-2.13,1.4-2,1.24.08,1.15,1,1.16,1.85,0,1.56,0,3.13,0,4.69a3.27,3.27,0,0,0,3.46,3.5c2.78.05,1.5-2.18,1.62-3.43.19-2.11,0-4.25.06-6.38,0-1-.44-2.52,1.44-2.42,1.56.07,1.11,1.38,1.13,2.26.05,2.56,0,5.11,0,7.67,0,5.38-.32,5.11-5.89,4.59a88,88,0,0,0-9.89-.08C106.35,321.46,99.72,322,93,320.92Z"/><path class="cls-3" d="M325.71,341.23c0,2.91,0,4.55,0,6.19,0,.75-.18,1.41-1.07,1.53s-1.25-.42-1.25-1.23a64.49,64.49,0,0,1,.08-8.46c.27-2.11,1.81-1.65,2.93-.46,1.78,1.91,3.46,3.91,5.33,6.06,1-2.12.33-3.95.57-5.71.11-.85.54-1.24,1.38-1.17s.81.66.82,1.22a64.49,64.49,0,0,1-.08,8.46c-.28,2.19-1.75,1.63-2.85.4C329.88,346.18,328.28,344.23,325.71,341.23Z"/><path class="cls-4" d="M267.58,319.15c-.64-4.08-1.78-7.49-4.8-10-.8-.66-1.69-1.24-.88-2.38s1.79-.32,2.49.24c4.19,3.32,5.27,8.1,6,13,.15,1-.48,1.52-1.51,1.52q-4.87,0-9.75,0c-1,0-1.58-.42-1.52-1.49s.83-.95,1.52-1Z"/><path class="cls-5" d="M210.36,341.64c-1.41,2.64,1.33,6.26-1.73,6.9-1.24.26-.53-4.15-.66-6.41-.08-1.35-1.06-3.41.88-4.07s2.46,1.48,3.47,2.54c1.24,1.3,2.41,2.68,4.32,4.81,0-2.22-.09-3.55,0-4.87.08-1-.69-2.64,1.19-2.53,1.68.1,1.2,1.72,1.11,2.7-.26,2.72,1.39,6.88-.82,7.83-2.74,1.17-3.94-3.14-5.94-4.93C211.61,343.06,211.1,342.43,210.36,341.64Z"/><path class="cls-6" d="M375.45,345c0-2.15,0-4,0-5.79,0-.56,0-1.17.8-1.23a1.11,1.11,0,0,1,1.34,1.22,73.1,73.1,0,0,1-.14,8.51c-.25,2.22-1.65,1.42-2.67.41s-1.91-2.1-2.85-3.17-1.77-2.06-3.28-3.83c0,2.71,0,4.49,0,6.27,0,.65.13,1.5-.92,1.56s-1.13-.62-1.17-1.37a3.1,3.1,0,0,1,0-.43c.28-3-1.31-8.06.79-8.68C371,337.39,371.87,343,375.45,345Z"/><path class="cls-7" d="M346.76,349.11c-2.54.21-4.95-.66-6-3.34-.9-2.3-.82-4.78,1.29-6.62,2.29-2,5-1.59,7.68-1.16a1.22,1.22,0,0,1,1,1.58c-.23,1.24-1,.41-1.56.31a16.41,16.41,0,0,0-2.51-.32c-1.66-.05-3.08.38-3.69,2.17a4.05,4.05,0,0,0,.77,4.34c1.32,1.46,3.06,1.44,4.72,1.09,1.13-.24,1.27-1.18.06-1.6-.94-.32-1.71-.61-1.12-1.64.51-.87,1.56-.33,2.36-.39s1.53-.09,1.86,1.11C352.47,347.83,351.23,349.11,346.76,349.11Z"/><path class="cls-8" d="M108.93,342.26a8.76,8.76,0,0,1,0-1.7c.19-.95-.71-2.67,1.17-2.54,1.64.11,1,1.73,1.09,2.75.11,1.41,0,2.84.16,4.24a2.32,2.32,0,0,0,2.59,2.24c1.66,0,2.7-.78,2.72-2.55s0-3.68,0-5.52c0-.57.08-1.2.84-1.18.37,0,1,.22,1.06.42.51,2.93.85,5.95-.36,8.74-1,2.21-3.19,2-5.19,1.95C108.33,348.87,109,345.36,108.93,342.26Z"/><path class="cls-9" d="M343.52,309.86c0-3.1,0-6.2,0-9.31,0-.83-.07-1.77,1.12-1.89,1.38-.15,1.61.76,1.61,1.85,0,6.35,0,12.71,0,19.06,0,1.05-.14,2.06-1.55,1.93-1.17-.1-1.16-1.07-1.16-1.9C343.5,316.36,343.52,313.11,343.52,309.86Z"/><path class="cls-10" d="M431.79,309.9c0-3.12,0-6.24,0-9.36,0-1-.18-2.09,1.42-2,1.23.11,1.16,1,1.16,1.83q0,9.57,0,19.16c0,1,.07,2.12-1.46,2s-1.09-1.42-1.11-2.28C431.75,316.15,431.79,313,431.79,309.9Z"/><path class="cls-11" d="M201.28,342.4c0,5.58-1.17,6.94-5.59,6.73-2.06-.09-3.73-.76-4.19-2.86a16.37,16.37,0,0,1,.06-7.93c.06-.21.72-.33,1.11-.34.76,0,.88.57.89,1.14,0,1.7.05,3.4,0,5.11,0,1.87.79,3,2.74,3s2.73-1.21,2.83-3c.07-1.27,0-2.55.07-3.82.06-.89-.47-2.29,1-2.39,1.62-.12,1,1.36,1.08,2.2A15.13,15.13,0,0,1,201.28,342.4Z"/><path class="cls-12" d="M405,338.78c-1.26,2.07-4.73-.76-4.77,2.27,0,2.31,3.07.13,4.09,1.92.12,1.17-.94.88-1.7,1-1.17.12-2.7-.43-2.57,1.71s1.68,1.35,2.8,1.53c.86.14,2.34-.48,2.31.94s-1.51.73-2.38.89c-4.18.81-6-.75-5.15-5.06a5.55,5.55,0,0,0,0-2.11c-.71-3.61,1.21-4.35,4.21-3.9C402.86,338.08,404.09,337.42,405,338.78Z"/><path class="cls-6" d="M391.82,338.36c-1.55,2.53-5-.35-5.12,2.62-.12,2.51,3,.21,4.09,1.84-.06,2.67-5.25-.61-4.16,3.21.73,2.58,3.72,0,5.29,2.13-2.45,1.57-6.3,1.65-7.17.38-1.87-2.71-1.5-6.9-.36-9.74C385.26,336.65,389,337.93,391.82,338.36Z"/><path class="cls-13" d="M317.74,338.42c-1.69,2.42-5-.26-5.29,2.42s3.34,0,4.09,2.28a3.13,3.13,0,0,1-.71.75c-1.14.63-3.51-1.14-3.5,1.65s2.26,1.26,3.52,1.62c.64.18,1.53-.07,1.51,1s-.93,1-1.56.88c-2-.36-5.1,1.26-5.72-1-.83-3-1.35-6.86.28-9.47C311.42,336.86,314.9,337.75,317.74,338.42Z"/><path class="cls-14" d="M85.72,339c-2.52,1.27-5.69-.59-6,1.37-.46,2.49,3,1.62,4.48,2.62,1.2.8,1.91,1.69,1.73,3.08a3.09,3.09,0,0,1-2.31,2.77,21.73,21.73,0,0,1-4.64.17c-1,0-1.7-.62-1.46-1.61.38-1.58,1.26-.05,1.91-.15a13.73,13.73,0,0,1,1.69.07c1,0,2.17.11,2.39-1.18s-1.07-1.48-1.93-1.82-1.65-.4-2.44-.71a2.75,2.75,0,0,1-1.8-3,2.63,2.63,0,0,1,2.3-2.64C81.48,337.59,83.39,337.3,85.72,339Z"/><path class="cls-15" d="M433.81,339c-1.94,1.57-4.55-.71-5.95,1.57.64,1.95,2.54,1.59,3.89,2.12,1.61.63,2.83,1.39,2.62,3.31a3.25,3.25,0,0,1-3.44,3.08,27.75,27.75,0,0,1-3.41-.05c-.93-.06-1.76-.48-1.6-1.54.25-1.72,1.17-.26,1.78-.27,1,0,2,.06,3,.07a1.22,1.22,0,0,0,1.28-.89,1.24,1.24,0,0,0-.85-1.65,8.78,8.78,0,0,0-1.57-.64c-1.7-.38-3.44-.66-3.72-2.84-.18-1.41.28-2.69,1.67-3.09C429.55,337.55,431.75,337,433.81,339Z"/><path class="cls-16" d="M167.28,347.17c.35,0,1.3-1.38,1.53.36a1.14,1.14,0,0,1-1.12,1.45c-2.82.16-5.82.78-7.8-2a5.76,5.76,0,0,1-.38-6.79c1.84-2.88,4.75-2.69,7.65-2.3.71.09,1.51.18,1.44,1.15-.1,1.58-1.21.69-1.86.62-3-.36-5.68,0-5.55,3.84S164.07,347.49,167.28,347.17Z"/><path class="cls-17" d="M232,339.59c-2.86-.38-5,.54-5,3.64,0,3.27,2.23,4.2,5.23,4.1.77,0,2-1.65,2.37.11s-1.16,1.58-2.29,1.65c-2.62.16-5.24.14-6.78-2.47a6,6,0,0,1,.16-6.82c1.6-2.3,4.08-2.33,6.54-2,.85.11,2.36-.3,2.24,1.24C234.28,341.4,232.74,339,232,339.59Z"/><path class="cls-18" d="M254.11,348.79c-4.21,1-5.18-.65-4.79-3.88.18-1.53,0-3.1,0-4.66,0-.94-.24-2.2,1.18-2.3,1.58-.1,1.18,1.25,1.21,2.14.06,1.41.07,2.83,0,4.24s.07,2.43,1.95,2.41c1.27,0,3.57-.69,3.52,1.14C257.15,350.19,254.7,348.46,254.11,348.79Z"/><path class="cls-19" d="M295.54,338.58c-1.41,2.33-4.71-.38-5.1,2.22-.47,3.11,3.7.12,4.23,2.87-2.47.44-5.33.69-4.5,4.48.15.68-.59.85-1.18.75s-.77-.73-.77-1.28c0-2.68,0-5.36,0-8,0-1.32.64-1.77,1.82-1.64C291.75,338.13,293.6,337.41,295.54,338.58Z"/><path class="cls-20" d="M243.24,343.64c-1,1.66,1.35,5-1.56,5.07-2.22.05-1.13-3.26-1-4.92.14-1.93-1.75-5.43,1.25-5.53C244.23,338.19,242.46,341.76,243.24,343.64Z"/><path class="cls-21" d="M360.4,343.32c-1.07,1.95,1.12,5.39-1.62,5.37-2.46,0-1.12-3.47-1.1-5.28s-1.46-5.23,1.22-5.17S359.06,341.81,360.4,343.32Z"/><path class="cls-22" d="M144.38,343.44c-.95,1.83,1,5.14-1.25,5.16s-1-3.28-1-5-1.44-5.12,1.16-5.25C145.09,338.26,143.44,341.78,144.38,343.44Z"/><path class="cls-23" d="M377.18,304.67c.33-3.28-.78-7.35,5-5.74-.65,1.62-3.83.17-3.25,2.86.47,2.12,2.63,0,3.74,1.81Z"/><path class="cls-24" d="M238,302.15c.05,1-.3,1.65-1.33,1.77a1.66,1.66,0,1,1-.31-3.31A1.55,1.55,0,0,1,238,302.15Z"/><path class="cls-25" d="M86.66,305.5c-.28,1.16-.69,1.82-1.73,1.8a1.39,1.39,0,0,1-1.54-1.54c0-1.15.63-1.89,1.79-1.78C86.12,304.06,86.39,305,86.66,305.5Z"/><path class="cls-26" d="M367.81,300.56a1.76,1.76,0,0,1,1.64,1.56,1.44,1.44,0,0,1-1.32,1.77,1.52,1.52,0,0,1-1.9-1.64A1.82,1.82,0,0,1,367.81,300.56Z"/><path class="cls-27" d="M154.89,302.15c-.07.89-.43,1.6-1.4,1.73s-1.64-.17-1.76-1.22a1.62,1.62,0,0,1,1.5-2C154.22,300.53,154.63,301.31,154.89,302.15Z"/><path class="cls-28" d="M387.7,326a1.67,1.67,0,1,1,1.4-1.76A1.6,1.6,0,0,1,387.7,326Z"/><path class="cls-29" d="M256.13,324c-.05,1-.11,1.83-1.26,1.93a1.37,1.37,0,0,1-1.62-1.47c-.05-.9.17-1.69,1.25-1.84S255.93,323.25,256.13,324Z"/><path class="cls-30" d="M251.65,324.06c-.11,1.21-.57,1.83-1.55,1.9a1.5,1.5,0,0,1-1.64-1.48,1.54,1.54,0,0,1,1.7-1.84C251.13,322.68,251.46,323.48,251.65,324.06Z"/><path class="cls-31" d="M104.89,324.32c0,1-.41,1.66-1.45,1.67s-1.44-.75-1.43-1.68.37-1.69,1.43-1.67S104.88,323.35,104.89,324.32Z"/><path class="cls-32" d="M98.74,322.61a1.6,1.6,0,0,1,1.64,1.53,1.6,1.6,0,1,1-3.19.13A1.63,1.63,0,0,1,98.74,322.61Z"/><path class="cls-33" d="M364.78,302.18c0,.88-.3,1.6-1.32,1.73s-1.64-.15-1.73-1.24.24-2,1.44-2.08C364.19,300.5,364.56,301.29,364.78,302.18Z"/><path class="cls-34" d="M393.62,324c-.05,1.15-.32,1.93-1.4,2s-1.48-.64-1.51-1.6.34-1.67,1.38-1.74S393.42,323.41,393.62,324Z"/><path class="cls-35" d="M242.47,302.37c0,1-.5,1.57-1.52,1.54s-1.43-.68-1.37-1.66.56-1.66,1.51-1.63S242.45,301.45,242.47,302.37Z"/><path class="cls-36" d="M219.25,300.94c0-1,.49-2.48-1.46-2.31-1.56.14-1.13,1.38-1.13,2.26,0,5.11,0,10.22-.06,15.33,0,1,.67,2.26-.9,2.9-3.43,1.42-6.7-.61-6.74-4.33-.05-4.69,0-9.37,0-14.06,0-.93.29-2.09-1.29-2.14s-1.27,1.19-1.28,2.08c0,3.69,0,7.38,0,11.08,0,7.59,0,7.6-7.55,7.35-.18,0-.35-.23-.52-.35,1.83-3.68,2.65-7.35-.72-10.54a6.35,6.35,0,0,0-7.87-.9c-3.45,1.83-4.5,5.6-3.34,11.6-6.39.56-6.39.56-6.41-5.72v-.43c-.05-8.85-5.65-13-14.39-10.76-1,.25-2.15.13-1.8,1.65s1.46.84,2.39.71c9.15-1.29,14.41,5.19,11.21,13.75-.32.85-.79,1-1.54,1.05-4.56.45-2.71-3-2.77-4.9-.19-6.44-1.54-7.46-7.75-5.37-2.16.73-3.78,2-4.2,4.34a7.1,7.1,0,0,0,1.28,5.79c-7.77.29-7.84.23-7.83-6.77a18.07,18.07,0,0,0,0-2.55c-.16-1.09.7-2.92-1.45-2.82-1.73.08-1.19,1.62-1.22,2.66-.06,2,.11,4-.07,5.95-.11,1.23,1,3.14-1.05,3.56-1.91.39-4.08.49-5.49-1.33a11.91,11.91,0,0,1-1.35-3.06c-1.09-2.78-2.21-5.55-4.7-7.44-.74-.56-1.62-1.53-2.55-.61s-.36,1.72.58,2.44c3.12,2.41,4.19,5.9,5.07,10.11-2.64,0-4.91-.11-7.17,0-1,.07-3-.89-2.92,1.16s1.94,1.17,3,1.18c7.8.06,15.59,0,23.38,0,19.39,0,38.79,0,58.18.06,2.25,0,2.54-1,2.51-2.81C219.22,312.87,219.28,306.9,219.25,300.94ZM168,319.18c-2.59-.24-4.19-1.32-4.29-4.13-.11-3.16,1.89-4.21,4.5-4.36,4-.23,1.35,3.08,2.32,4.32C170.07,316.83,171.55,319.52,168,319.18Zm23.7,0c-3.34.11-3.09-2.25-3.13-4.27-.06-3.05.84-5.75,4.46-5.95,3.12-.17,4,2,4.07,4.71C197.08,317.31,195.18,319.09,191.65,319.2Z"/><path class="cls-37" d="M426.65,300.8c0-.91.34-2.12-1.21-2.2-1.9-.1-1.46,1.34-1.47,2.37,0,4.83-.2,9.67,0,14.48.16,3-.78,3.77-3.76,3.83-3.23.06-3.94-1.21-3.56-4a18.22,18.22,0,0,0,0-2.56c-.08-8.7-4.89-12.6-13.53-10.82-1,.2-3.13-.61-2.65,1.6.42,2,2,.79,3.17.6C410.91,303,414,305.6,414.14,313c0,1.28-.09,2.57,0,3.83.18,1.93-.68,2.39-2.48,2.39s-2.11-.82-2.05-2.33c.07-2.12.05-4.26,0-6.38,0-.91.37-2.18-1.17-2.26-3.3-.16-6.7-.18-9.19,2.35s-2,5.38-.11,8.43c-7.65.3-7.65.3-7.64-6.64,0-1.28,0-2.56,0-3.84,0-1-.37-1.68-1.43-1.68s-1.3.87-1.3,1.77c0,2.41-.09,4.83,0,7.24.1,2.1-.07,3.58-2.85,3.34-2.34-.21-4.76.09-4.81-3.28,0-2.27,0-4.54,0-6.82,0-1,.17-2.18-1.24-2.26-1.72-.11-1.58,1.24-1.59,2.37,0,2.42-.1,4.84,0,7.24.1,1.94-.44,2.6-2.56,2.79-3.68.34-5.22-.71-4.61-4.57a40.69,40.69,0,0,0,.05-5.95c0-1.09-.11-2-1.55-2-3.53.13-7.28-.32-9.79,3a7.56,7.56,0,0,0-.9,8c1.68,3.89,5.21,3.87,8.68,3.85,8.39,0,16.81-.67,25.14-.36,10.51.4,21,0,31.5.38,1.9.08,2.44-.69,2.42-2.49C426.62,313,426.68,306.91,426.65,300.8Zm-60.78,18.42c-3.09-.16-4.82-1.36-4.91-4.52a5.33,5.33,0,0,1,5.59-5.63c2.09,0,2.09,0,2.09,5.49C367.85,316,370.53,319.47,365.87,319.22Zm39.19-.05c-2.88-.06-4.73-1.45-4.71-4.31s2.21-4.23,4.89-4.16c3.65.1.85,3.14,2,4.38C406.43,316.54,408.56,319.25,405.06,319.17Z"/><path class="cls-38" d="M338.22,301.25c0-1,.53-2.56-1.25-2.59-2.09,0-1.45,1.71-1.47,2.83-.05,4.69,0,9.37,0,14.06,0,1.65.84,3.86-2.41,3.66-2.55-.16-4.55-.52-4.52-3.67,0-2.41,0-4.83,0-7.24,0-.7-.06-1.44-1-1.5s-1.53.5-1.53,1.52c0,2.56.12,5.12-.05,7.67-.07,1.13,1.06,3.13-1.48,3.13-1.93,0-3.31-.91-3.53-2.9-.18-1.55,0-3.13-.08-4.68-.06-1,.53-2.54-1.39-2.45-1.55.08-1.11,1.37-1.14,2.26-.07,1.56.12,3.14-.07,4.68-.13,1.14,1,3.13-1.52,3.1-1.94,0-3.32-.88-3.52-2.91-.16-1.55,0-3.12-.1-4.68,0-1,.39-2.53-1.45-2.44-1.55.08-1.05,1.41-1.09,2.28-.08,1.84,0,3.69,0,5.54,0,.93.27,2.23-1.24,2.18-3-.1-6.08.66-9.09-.63,2.24-3.62,6.07-6.71,3.82-11.12-1.39-2.72-10-2.13-12.61.92-3.81,4.43,1.78,6.75,3,10.44-8.49,1.25-8.49,1.25-8.5-6.66,0-1.14,0-2.28,0-3.41,0-.86,0-1.86-1.19-1.84-3.24,0-6.58-.26-9.13,2.47-2.35,2.52-2.29,5.51-1.41,8.39s3.56,3.75,6.44,3.95c1,.07,2.48-.69,2.65,1.15a3.12,3.12,0,0,1-2,3,6.7,6.7,0,0,1-5.39-.06c-1.06-.37-1.62-.15-1.94.82s.51,1.13,1.11,1.45c2.8,1.51,8.65,1,9.26-1.56,1.28-5.34,5.2-4.1,8.67-5.23,4-1.32,7.43.49,11.11.37,5.83-.19,11.76-.76,17.45-.5,4.6.2,9.33-.63,13.93.48,2.23.54,2.91-.67,2.87-2.85C338.17,312.89,338.26,307.07,338.22,301.25Zm-57.45,17.93c-2.94-.11-4.37-1.44-4.46-4.43-.1-3.55,1.83-5.58,5-5.53,4,.07.83,3.57,2.17,5.12C282.35,315.94,285.18,319.35,280.77,319.18Zm16.64-2.42a5.84,5.84,0,0,1-4.23-5.26c-.23-2.92,2.78-2.91,4.8-3.3,1.61-.32,3.33-.13,3.92,1.2C302.06,312,298.75,317.1,297.41,316.76Z"/><path class="cls-38" d="M254.22,308.46c0-.9-.16-1.71-1.36-1.66s-1.24.91-1.24,1.78c0,2.55-.18,5.12,0,7.65s-.85,2.9-3.13,3c-3.24.17-4.72-.68-4.21-4.14.24-1.67-.15-3.42.08-5.09.38-2.77-.79-3.58-3.33-3.2-1.26.19-2.57.09-3.81.35a7.28,7.28,0,0,0-5.81,7.77c.2,3.83,2.44,6.23,6.43,6.58,2.25.2,4.54,0,6.81,0v0c2.41,0,4.82-.06,7.23,0,1.55.05,2.37-.36,2.34-2.1C254.18,315.83,254.23,312.14,254.22,308.46Zm-12.34,5.71c-.6,2.08,1.43,5.34-3.07,5.05-3.25-.21-4.59-1.8-4.53-4.83.07-3.46,2.15-5.3,5.38-5.23C243.73,309.25,240.81,312.69,241.88,314.17Z"/><path class="cls-39" d="M129,337.8c-5.08-.45-3.51,2.9-3.75,5.63.68,2-2,6.11,3.65,5.68,5-.39,7.42-1.86,7.43-5.61S134,338.25,129,337.8Zm1.1,9c-3.41.31-2-2.16-2.33-3.62.29-1.42-.87-3.72,2.2-3.35,2.14.26,3.82.83,3.85,3.48S132.39,346.6,130.1,346.82Z"/><path class="cls-40" d="M276.51,337.66c-3.64,0-5.48,2-5.74,5.48s2.15,5.9,5.66,6,5.91-2.11,5.94-5.66A5.47,5.47,0,0,0,276.51,337.66Zm.16,9.52c-2.42.08-3.61-1.59-3.58-3.84s1.27-3.81,3.73-3.65c2.24.14,3.12,1.65,3.07,3.79S278.82,347.1,276.67,347.18Z"/><path class="cls-41" d="M179.81,337.66a5.51,5.51,0,0,0-5.87,5.81c.05,3.55,2.36,5.71,6,5.66s5.42-2.18,5.64-5.58S183.37,337.66,179.81,337.66Zm3.38,6.1c-.15,2.05-1.35,3.58-3.55,3.42-2.36-.17-3.36-1.8-3.15-4.82a2.94,2.94,0,0,1,3.44-2.67C182.4,339.84,183.36,341.54,183.19,343.76Z"/><path class="cls-42" d="M420.09,346.93c.19-1.28-2.27-1.41-.93-3.37,2.34-3.44,1-5.14-3.09-5.71-4.8-.67-5.64,1.54-4.83,4.81a31.88,31.88,0,0,0,0,3.64c.13,1-.71,2.61,1.11,2.6,1.5,0,.89-1.47,1-2.34.32-2.75,1.73-2.09,3.07-.9a7.82,7.82,0,0,1,1.55,2.49,1.52,1.52,0,0,0,2.13.76C421.4,348.32,420,347.53,420.09,346.93Zm-4.44-3.84c-1.13,0-2.29.14-2.33-1.59,0-1.53.69-1.94,2.06-1.87s2.74,0,2.71,1.82C418.07,342.9,416.86,343.11,415.65,343.09Z"/><path class="cls-43" d="M98.9,339.6c-1.38-2.65-2.79-2.52-4.08.06-1.49,3-2.94,6-4.49,9.16,2.8.54,3.71-2.41,6.41-2.48,2.87-.08,3.8,3.51,6.8,2.35C102,345.58,100.45,342.58,98.9,339.6Zm-.32,4.92c-.55,1.53-2.42.57-4.36.54l2.36-4.65C97.77,341.7,99.06,343.18,98.58,344.52Z"/><path class="cls-44" d="M104,238.94c3.41,2.34,7,4.48,10.17,7.1,2.23,1.82,3.61,1.39,5.76-.13,13.33-9.44,26.78-18.71,40.22-28,.5-.35.93-1.06,1.83-.82a53.77,53.77,0,0,1-14.58,17.39c-7,5.58-13.69,11.52-20.61,17.2-2.29,1.89-.65,2.57.73,3.52L154.68,274c.38.26.74.54,1.73,1.26H135.67c-1.19,0-1.94-.94-2.75-1.63-4.58-3.88-9.16-7.76-13.64-11.76-1.64-1.47-2.84-1.52-4.52,0-4.32,3.87-8.84,7.53-13.18,11.37A7.62,7.62,0,0,1,96,275.38c-5.88-.14-11.77,0-18.58,0l24.21-16.73c1.86-1.29,3.67-2.66,5.58-3.87,1.66-1,1.51-1.79.08-3-3.54-2.93-7.33-5.6-10.4-9.09C99,241,100.86,238.68,104,238.94Z"/><path class="cls-45" d="M226.64,189.29c-6.28,0-12.56-.34-18.77,1.17-5.21,1.27-8.92,5.37-8.94,10.2,0,3.25,1.83,5.3,4.27,7,5.39,3.65,11.47,5.66,17.72,7.22-.45,1.55-1.67,1.1-2.62.89-3.66-.81-6.12.63-7.7,3.88a11.45,11.45,0,0,1-.77,1.26c-.38.56-2,.8-.1,1.87,1.17.65.06,2.54-2.47,4.11,1.58.67,4.26-.22,4.15,2.89-6.18-1.28-12.39-2.69-18-5.57-9.21-4.73-12.84-12.87-12.57-23,.32-11.51,6-19.3,16.5-23.65a50.64,50.64,0,0,1,20.31-3.8,19.88,19.88,0,0,1,6.53,0l5.61.15c-.33,1.52-1.63,1.2-2.61,1.27-1.87.14-3.75,0-5.63.06a5.28,5.28,0,0,0-3.4.82c-2.64,2.15-3.79,5.39-5.58,8.13-1.17,1.8.41,3.51,2.8,3.6,3.06.13,6.13,0,9.19.05a6.41,6.41,0,0,1,2.9.45c.38.19.72.51.48.9S227.11,189.45,226.64,189.29Z"/><path class="cls-46" d="M226.75,258.61c1.76-.77,3.61-1.4,5.28-2.34,5.15-2.88,7.17-7.86,5.69-13.66a3.76,3.76,0,0,0-1-2.39c-1.16-1.75-2.25-3.45-.63-5.62.85-1.15-.48-2.61.17-4a27.16,27.16,0,0,1,4.59-6.79c1.23-1.37,3-.83,4.4-1.31,9.37,4.58,12.55,14.56,11.66,24.82-1.39,16.22-12.25,23.85-26.05,26.76a41.25,41.25,0,0,1-9.38,1.11,9.92,9.92,0,0,0-3.21-.2c-3-.18-4.37-2.6-2.74-5a12.37,12.37,0,0,0,1.42-3.83c.84-3.09,2.62-5.25,5.89-5.89A13.36,13.36,0,0,0,226.75,258.61Z"/><path class="cls-47" d="M283.22,262.42c-9.14-7.91-13.49-18.37-15.27-29.94a57.26,57.26,0,0,1,3.94-32.15,42.53,42.53,0,0,1,12.56-16c1.06,1.38.15,2.44-.65,3.42a6.41,6.41,0,0,0-1.11,4.14c-.2,4.83.72,9.66-.16,14.47a2,2,0,0,0-.08.88c1.51,5.42.21,10.92.3,16.37.1,6.19.33,12.4-.13,18.61a48.67,48.67,0,0,0,1.35,17C284.32,260.52,284.41,261.59,283.22,262.42Z"/><path class="cls-48" d="M283.22,262.42c.26-1.21.91-2.44-.48-3.47a2.32,2.32,0,0,1-.63-2.2c.4-5.68-.57-11.32-.3-17.07.29-6.07.1-12.33.05-18.45,0-4.9-.53-9.86-.2-14.73a117.83,117.83,0,0,0-.12-15.72,3.52,3.52,0,0,1,1.24-3.14c1-.86,2-1.75,1.67-3.26a21.84,21.84,0,0,1,5.36-3.48c1.26.08.67,1,.56,1.48-1,4.49-.53,9-.18,13.49.23,2.93.54,6.12-1.23,8.9a2.79,2.79,0,0,0-.22,2.29c-.14-1.13-.28-2.34,1.1-2.77.77-.23,1.87-.45,1.8,1a32.15,32.15,0,0,0-3.72,13.59,34,34,0,0,0,0,7.68c.26,9.75,4.7,17.56,11.34,24.34-2.8.93-3.11,2.9-3.24,5.66-.18,3.58,1.24,6.92.88,10.45-.11,1.09.88,1.66,1.59,2.34s2,1.14,1.4,2.56A38.85,38.85,0,0,1,283.22,262.42Z"/><path class="cls-49" d="M226.75,258.61l.73.37c-1.63.09-2.49,1.68-4,2-4.16,1-5.5,2.53-6.1,6.77-.1.67.1,1.38-.46,2-.73.76-2.43,1.14-1.4,2.7.92,1.39,2,2.69,4,2.25a2,2,0,0,1,1.93.48c-12.44.6-24.61-.66-36.36-5.09a3.11,3.11,0,0,1-2.4-3.34,146.55,146.55,0,0,0-1.84-17.84c4.11,2.46,7.8,4.81,11.88,6.41a58.27,58.27,0,0,0,32.48,3.35A13.13,13.13,0,0,1,226.75,258.61Z"/><path class="cls-50" d="M226.64,189.29c.26-.18,1.67-.5.13-.59-3.74-.23-7.5-.06-11.25-.09-1.44,0-3.64.38-3.79-1.3-.17-1.86-1.61-4.5,1.41-5.79a3.17,3.17,0,0,0,1.91-2.74c.36-2.4,2.93-4.26,5.43-4.42,3.11-.2,6.28.64,9.34-.48a102.44,102.44,0,0,1,17.12,3c.9.22,1.8.41,1.84,1.83.15,5.61.46,11.21.72,17.13a66.54,66.54,0,0,0-17.93-5.78C229.93,189.79,228.19,190.13,226.64,189.29Z"/><path class="cls-51" d="M245.28,222.5c-.25.3-.49.84-.75.86-4.9.25-5.64,4.62-7.68,7.69a1.37,1.37,0,0,0,.17,1.87c.41.46.78,1.25.34,1.58-3,2.32-.51,4.24.39,6.25.3.68.57,1.24,0,1.86-2.54-4.51-6.89-6.57-11.45-8.18-4.9-1.72-9.91-3.15-14.86-4.7-.71-2.1-2.44-2-4.14-1.94-.76,0-1.82.15-1.92-.86s.91-.81,1.57-1a4.56,4.56,0,0,0,1.37-.52,2,2,0,0,0,1.2-2.18c-.32-1.3-1.27-.16-1.92-.26a3.27,3.27,0,0,1-1.38-.49c3.31-.88,3.76-4.13,5.67-6.15s4-1.87,6.31-1.45c1,.18,1.86.79,2.75-.1C229.3,216.57,237.64,218.4,245.28,222.5Z"/><path class="cls-52" d="M406.54,188.69a34.56,34.56,0,0,1-7.19,0c-1.84.45-3.65.16-5.73.16,1.42-1.55,1.43-1.74,3-1.65,2.8.16,4.36-1.13,5.41-3.6.69-1.62,1.5-3.22,2.33-4.79,1-2,.37-3-1.7-3.28-3.15-.46-6.31-.16-9.47-.24a35,35,0,0,1-5.61-.21,1.87,1.87,0,0,1-1.39-.84c.22-.92.91-.73,1.45-.73h43.54a1.94,1.94,0,0,1,1.12.29c.77,6.22.29,12.52,1.35,19-6.93-2.68-13.91-3.27-20.92-3.73C410.68,188.59,408.57,189.26,406.54,188.69Z"/><path class="cls-53" d="M404.41,260c8.3-.15,16.59-.38,24.69-2.49,1.41-.37,2.79-.84,4.61-1.39-1.2,4.77-.46,9.44-1.31,14-.26-.08-.39,0-.4.15-.29,4.75-.29,4.75-5.2,4.74H400.15c-.95-.21-1-.94-.75-1.6,1.25-3.9,2.73-7.72,3.44-11.78A2.3,2.3,0,0,1,404.41,260Z"/><path class="cls-54" d="M368.51,224.67c4.95-2.06,9.41-2.87,13.78-3.87a178.85,178.85,0,0,1,25-4.15h.29c5.22-.67,5.3-.6,5.3,4.58,0,2.76-.16,5.54.05,8.28s-.88,3.22-3.25,3a193.07,193.07,0,0,1-20.73-3C382.41,228,375.83,226.39,368.51,224.67Z"/><path class="cls-55" d="M338.53,191.52c-7.64-1.81-15.33-2.91-23.19-1.79-2.51-.47-3.58-2.14-4-4.51a20,20,0,0,1,0-8c.48-2.24,1.61-3.07,4.07-3.29,4.74-.42,9.46.59,14.17-.09a48.27,48.27,0,0,1,10.88,1.57,42,42,0,0,1,.57,13.32A2.73,2.73,0,0,1,338.53,191.52Z"/><path class="cls-56" d="M432.28,173.79l-45.34.1c-.08,0-.16.1-.71.49h13a44.3,44.3,0,0,1,5,.49c2.61.32,2.29,1.72,1.56,3.29-1.32,2.84-2.81,5.6-4.17,8.43a2.47,2.47,0,0,1-2.63,1.46,10.34,10.34,0,0,0-4.58.65h5c-3.22.65-6.49.38-9.74.57a2.67,2.67,0,0,1-1.89-.67L369.18,174c.7-1,1.54-.5,2.22-.51q28.92-.06,57.84,0C430.2,173.4,431.34,172.93,432.28,173.79Z"/><path class="cls-57" d="M318.31,258.74a69.94,69.94,0,0,0,16.67-.56c2.31,0,3,1.48,3.1,3.44.1,2.35.29,4.69.47,7,.28,3.61-1.21,5.2-5.26,6.12a69.25,69.25,0,0,1-18.75,0c.08-.22.4-.19.47-.43a1.39,1.39,0,0,1-1.38-1,21.57,21.57,0,0,1-.2-12.8C314.13,258.25,316.65,259.34,318.31,258.74Z"/><path class="cls-58" d="M318.31,258.74c-4.74,1.56-4.74,1.56-4.74,7a27.29,27.29,0,0,0,.06,4.43c.34,2-.1,4.85,3.51,4.34l-2.6.26a45.08,45.08,0,0,1-14.66-2.86c-.15-1.06-1.11-1.3-1.8-1.82-1.55-1.14-3-2.24-1.82-4.57.71-1.44-1-2.51-1.05-3.85-.07-2.73-.08-5.47.05-8.19s2-2.8,4-2.58A42.42,42.42,0,0,0,318.31,258.74Z"/><path class="cls-59" d="M404.41,260c-1.62,2.9-1.72,6.28-2.75,9.39-.6,1.8-1.88,3.38-2,5.34-3,.64-6,.14-9,.29H372.74c-.77,0-2.09.71-2.21-1q8.67-6.9,17.32-13.83a1.91,1.91,0,0,1,2.42-.33,12.36,12.36,0,0,0,5.83.14Z"/><path class="cls-60" d="M329.59,173.89c-4.27,1.08-8.61.49-12.9.39-3-.06-4.45.9-4.64,3.79-.29,4.27-1.18,8.73,3.29,11.66a39.18,39.18,0,0,0-14.59,5.5,3.29,3.29,0,0,0-1.29.69c-.73.59-1.35,1.62-2.51.8a2.41,2.41,0,0,1-.83-2.88,34.84,34.84,0,0,0,.69-12c-.28-2.48,1.84-3.34,2.5-5.1a52.44,52.44,0,0,1,18.2-3,19.33,19.33,0,0,1,6.35,0Z"/><path class="cls-61" d="M133.64,189.17,126,190.44c-3.83,1.63-7.47,3.75-11.56,4.73a4.64,4.64,0,0,0-1.68.48c-2.67,2-5.81,3.07-8.76,4.51L92.18,210.74c-.61.54-1.33,1.31-1.77.06-1.38-4-2.51-8.06-1.49-12.36,0-.13.51-.16.79-.24.37,1.62.92,2.19,2.64,1.07,4.8-3.13,10.38-4.69,15.42-7.3,3.65-1.89,8.09-1.92,11.17-5a13.5,13.5,0,0,1,1.73-.9l.93.1c1.79-.91,3.83-.79,5.7-1.42,1.12-.38,2.09.42,2.92,1.1a28.38,28.38,0,0,0,3.31,2.46.63.63,0,0,1,.11.86Z"/><path class="cls-62" d="M338.53,191.52c2.55-1.58,2.2-4.21,2-6.49-.32-3.08.66-6.29-.83-9.26l.81-.31c3.95.27,7.65,1.66,11.48,2.48,1.66.35,1.48,1.51,1.46,2.71-.12,5.59-.25,11.19,1.13,17.23A117.23,117.23,0,0,0,338.53,191.52Z"/><path class="cls-63" d="M299.31,176.75c.15.23.47.61.41.68-3.43,4.29-1.58,9.38-2.17,14.09-.11.85.15,1.76-.63,2.46s-.54,1.36,0,2.06c.74.88,1.33.49,1.93-.15a2.08,2.08,0,0,1,1.86-.66,41.74,41.74,0,0,0-9.11,10.1c-3.21-2.28-1.86,1.89-3.57,2.31a6.3,6.3,0,0,1,.44-3.18c1.42-2.7,1.22-5.86.88-8.56a44,44,0,0,1,.42-15A28.42,28.42,0,0,1,299.31,176.75Z"/><path class="cls-64" d="M333.29,274.77l-.17-.24c4.72-2,4.9-2.38,4.25-8.09a24.76,24.76,0,0,1,0-4.39,3.52,3.52,0,0,0-2.37-3.87l8.92-2.32c4.48-.38,5.56.8,5.07,5.69-.35,3.61.34,7.3-.83,10.85A48.48,48.48,0,0,1,333.29,274.77Z"/><path class="cls-65" d="M132.41,205.25a38.18,38.18,0,0,1,5.29,14,3.38,3.38,0,0,1-1.12,3.44,42.54,42.54,0,0,1-8.22,5.68c-1.82.95-2.25.1-2.4-1.44l-.75-7.93a3.06,3.06,0,0,1,.31-2.8c1.68-3.4,3.71-6.62,5.12-10.15C131,205.27,131.47,204.59,132.41,205.25Z"/><path class="cls-66" d="M348.14,272.4c-1.5-1.13-.08-2.38-.07-3.54a66.45,66.45,0,0,1,.33-9.14c.45-2.93-1.88-3.86-4.5-3.86a89,89,0,0,0,14.24-6.46c-1.18,6.78-2.43,13.15-2.55,19.64a1.56,1.56,0,0,1-1.35,1.65C352.19,271.2,350.17,271.82,348.14,272.4Z"/><path class="cls-67" d="M104,200.16c1-2.65,3.83-2.54,5.73-3.47,5.19-2.57,10.49-5.11,16.27-6.25,2.92,1.82,6.61,1,9.53,2.86-.64.87-1.68,1-2.58,1.48a6.49,6.49,0,0,0-6.07.88c-2.06,1.49-4.61,1.4-7,1.92-1.41.62-.65,2.08-1.17,3.06s-1,2.56-2.53,2.4-1.2-1.69-1.3-2.8c0-.53.26-1.17-.37-1.57a.36.36,0,0,0-.25,0,1,1,0,0,0-.22.19l-.83,2.78a6,6,0,0,1-3,1.77c-2.56.63-5.2,1-7.57,2.35-.38.21-1.19.58-1.13-.53.6-2,2.26-3.21,3.17-5,0,0-.1-.18-.16-.18Z"/><path class="cls-68" d="M108.7,190.45c-5.23-.74-10.42-1.86-15.76-1.2-1.18.14-1.62-.3-1.09-1.55a26.24,26.24,0,0,1,6.09-8.2,1.79,1.79,0,0,1,2-.24c4.56,1.55,9,3.36,12.4,6.94.18.86,1.72,1,1.31,2s-1.5.5-2.3.5C110,188.75,109.51,189.8,108.7,190.45Z"/><path class="cls-69" d="M133.06,194.56c.21-1.66,1.58-1,2.49-1.26,3.31.82,5.93,2.93,8.77,4.64a2.14,2.14,0,0,1,1,1.74,29.65,29.65,0,0,1-1.39,10.71c-.33,1.18-.93,1.15-1.65.49-3.3-3-6.56-6.11-9.84-9.17C132.35,199.3,133,197,133.06,194.56Z"/><path class="cls-68" d="M120.67,186.1c-.09.77-.41,1.31-1.28,1.34-4.16-.65-2.82-4.61-4.15-7-.64.18-.28.62-.27.91a6.5,6.5,0,0,0,.26,1.16c.2,1,.54,2-.58,2.64-1.36.76-1.46-1-2.28-1.28-.53-1.38-1.09-2.75-1.57-4.14-1.84-5.34-1.82-5.31,3.67-6.19a22.85,22.85,0,0,1,8.78.72c1.36.31,1.46.85,1.15,2.07A38.3,38.3,0,0,1,120.67,186.1Z"/><path class="cls-70" d="M133.65,188.64c-.49,0-1.27.14-1.43-.1-2.77-4.36-7-2.06-10.62-2.34,3.37-3.68,7.85-5.39,12.41-6.94a2.21,2.21,0,0,1,2.4.6,28.1,28.1,0,0,1,5.46,7.6c.45.89.94,2.25-1.11,1.71C138.41,188.46,136,189.38,133.65,188.64Z"/><path class="cls-71" d="M120,224.28c1,4.85.31,9.84,1.13,14.72.31,1.8-2.18,4.31-3.94,4.31s-4.37-2.81-4.25-4.48c.2-2.84.46-5.68.7-8.52C115.41,228,117.08,225.49,120,224.28Z"/><path class="cls-72" d="M101.57,205.24c3.76-1.68,7.86-2.2,11.7-3.59l-2.79,10.12c-3.41-.2-6.09,1.74-9,3.1-1.29.62-2.53,1.68-4,.45A18.72,18.72,0,0,1,101.57,205.24Z"/><path class="cls-73" d="M97.5,215.32c3.26.07,5.45-2.47,8.31-3.41,1.59-.52,3-1.95,4.67-.14q-.92,5.34-1.84,10.64c-2.91-2.27-2.9-2.26-6.28.26-.93.7-1.9,1.44-3.21,1C95.12,221.59,96.1,218.5,97.5,215.32Z"/><path class="cls-70" d="M112.41,183.88c.9-.21,1.27,1.61,2.22.72.78-.72,0-1.66-.24-2.43a6.83,6.83,0,0,1-.16-3.27c2.75.66,2.42,3.09,2.63,4.75s-.08,2.64,2.06,2.31c.61-.09.45.93.51,1.48-2.14,1.78-4.63,2.52-7.28,3.4a62.44,62.44,0,0,0-8.63,3.77,33.51,33.51,0,0,1-5.63,2.47c-2.28.68-4.27,2.3-6.43,3.42-.63.33-1.15,1.45-2,.74s-.22-1.45.08-2.18a8.23,8.23,0,0,0,.19-.86c.76-.93,1.52-1.87,2.87-1.89,1.61-.47,3.61-.26,4.2-2.46.28-.53.77-.46,1.25-.44,2.08.79,3.66-.37,5.29-1.37,1.54-1.31,3.53-.63,5.24-1.18a.41.41,0,0,0,.23-.16,1.29,1.29,0,0,0-.09-.25c.73-2.68,1.7-3.16,4.22-2,.67-1-1-1.33-.63-2.21.37,0,1.26.88.87-.46C113,185.14,112.7,184.5,112.41,183.88Z"/><path class="cls-74" d="M133.06,194.56c1.2,2.51.52,4.85-.66,7.15-1.42.32-1.79-2.32-3.48-1.24.69,1.1-.15,1.6-.9,2a16,16,0,0,1-6.15,2.13L120,198.24c-.36-.36-.92-.63-.56-1.3,3.29-.51,6.51-1.15,9.34-3.12C130.28,192.72,131.74,193.57,133.06,194.56Z"/><path class="cls-75" d="M121.87,204.59c1.68-1.63,4.12-1.66,6-2.85a1.74,1.74,0,0,0,1-1.27,20.9,20.9,0,0,1,3.53,4.78c-1.77.1-1.34,1.83-1.7,2.72-1.52,3.83-4.42,7-5.5,11Q123.55,211.79,121.87,204.59Z"/><path class="cls-76" d="M119.41,196.93c.19.43.37.87.56,1.3-1.12,1.38-.54,3-.56,4.49-.08,4.21,0,8.41,0,12.62-1.49.84-3,1.8-4.8,1.18,0-5,.07-10,0-14.92,0-.92.37-2-.57-2.73a1.74,1.74,0,0,1,1.22-1.52c0,1.46-.06,2.78,0,4.09a1.55,1.55,0,0,0,.78,1.11c.53.27.76-.37,1.12-.66C118.84,200.59,118.41,198.44,119.41,196.93Z"/><path class="cls-77" d="M114.62,216.52c1.58-.47,3-1.62,4.8-1.18,1.21,2.92.36,6,.54,8.94-2.08,2.05-3.77,4.52-6.36,6A70.58,70.58,0,0,1,114.62,216.52Z"/><path class="cls-78" d="M88.57,228.33l8.81,6c-1.5,2.42-4,3.08-6.51,3.55-2.86-2.71-6.33-4.71-8.94-7.71C83.69,228,86.19,228.38,88.57,228.33Z"/><path class="cls-79" d="M88.57,228.33c-.2.21-.43.61-.6.58-2.19-.35-4,.88-6,1.3-4.82-3.17-6.6-8.67-9.91-13.09A174.18,174.18,0,0,1,88.57,228.33Z"/><path class="cls-80" d="M90.87,237.92l6.54-3.55c2.5,1.11,4.39,3.09,6.63,4.57-2.67.67-4.38,3.17-7.12,3.71C94.48,241.59,92.78,239.61,90.87,237.92Z"/><path class="cls-81" d="M99.15,223.69a13.41,13.41,0,0,0,4-2.85c2-2.34,4.22-1.57,5.48,1.57.33,1.32-.36,2.51-.48,3.77-.31,3.2-.55,3.37-3.39,1.66C102.79,226.64,100.55,225.72,99.15,223.69Z"/><path class="cls-82" d="M390.79,274.71h8.89c9.5,0,19-.11,28.49.07,2.84,0,4-.71,3.6-3.6a21.45,21.45,0,0,1,0-3c.82.58.33,1.4.67,2,.25,5.21.25,5.22-4.73,5.21l-36.91-.1c-.2-.11-.26-.22-.2-.33S390.72,274.71,390.79,274.71Z"/><path class="cls-53" d="M390.79,274.71v.49h-22l1.72-1.23c.78,1.11,1.95.71,3,.71C379.25,274.72,385,274.71,390.79,274.71Z"/><path class="cls-68" d="M103.32,192c-1.7,2.36-3.35,2.78-5.29,1.37C99.75,192.81,101.35,191.72,103.32,192Z"/><path class="cls-68" d="M96.78,193.85c-.18,2.8-.87,3.21-4.2,2.46C93.72,195,95.41,194.66,96.78,193.85Z"/><path class="cls-63" d="M287.91,226.6a13.06,13.06,0,0,1,0-7.68Z"/><path class="cls-67" d="M133.65,188.64c2.36.22,4.81-.62,7.11.53h-7.12C133.64,189,133.64,188.82,133.65,188.64Z"/><path class="cls-53" d="M396.09,260c-1.9,1-3.9.43-5.87.35a.77.77,0,0,1-.09-.23.71.71,0,0,1,.13-.26Z"/><path class="cls-50" d="M224.21,173.73h-6.53A14.4,14.4,0,0,1,224.21,173.73Z"/><path class="cls-55" d="M323.86,173.72h-6.35A13.9,13.9,0,0,1,323.86,173.72Z"/><path class="cls-56" d="M406.54,188.69c2.06.08,4.17-.58,6.17.4A22.8,22.8,0,0,1,406.54,188.69Z"/></g></svg>