<?xml version="1.0" encoding="utf-8"?>
<!-- Generator: Adobe Illustrator 26.0.0, SVG Export Plug-In . SVG Version: 6.00 Build 0)  -->
<svg version="1.1" xmlns="http://www.w3.org/2000/svg" xmlns:xlink="http://www.w3.org/1999/xlink" x="0px" y="0px"
	 viewBox="0 0 128 128" style="enable-background:new 0 0 128 128;" xml:space="preserve">
<style type="text/css">
	.st0{fill:#312D2D;}
	.st1{fill:url(#SVGID_1_);}
	.st2{fill:url(#SVGID_00000048492491428641366840000014608237591247702434_);}
	.st3{fill:url(#SVGID_00000068662226148709005050000014707389504911189892_);}
	.st4{fill:url(#SVGID_00000080187989910063165230000000572517772791020684_);}
	.st5{fill:url(#SVGID_00000033344996610457050090000003019930982321935782_);}
	.st6{fill:#DDC2A8;}
	.st7{fill:url(#SVGID_00000010299452650019942840000003112120636366189698_);}
	.st8{fill:url(#SVGID_00000050663706235752221790000008727880150086066094_);}
	.st9{fill:#FFEA00;}
	.st10{fill:#363636;}
	.st11{fill:#212121;}
	.st12{fill:#FBCC3A;}
	.st13{fill:#6D6D6D;}
	.st14{fill:#6A6A6A;}
	.st15{fill:#373737;}
	.st16{fill:#363737;}
	.st17{fill:#6E6E6E;}
</style>
<g id="Layer_1">
	<path class="st0" d="M96.8,87.6c-1.3-2.3,0.2-4.6,2.8-7.5c4.1-4.5,8.4-15,3.9-25.4c0-0.1-0.9-1.8-0.9-1.9l-1.7-0.1
		c-0.6-0.1-19.6-0.1-38.7-0.1s-38.1,0-38.7,0.1c0,0-2.6,1.9-2.6,2c-4.5,10.4-0.2,20.9,3.9,25.4c2.6,2.9,4.1,5.2,2.8,7.5
		c-1.2,2.2-4.8,2.6-4.8,2.6s0.8,2.3,2.7,3.5c1.8,1.2,4.1,1.4,5.6,1.5c0,0,6,8.8,22,8.8h17.9c16.1,0,22.1-8.8,22.1-8.8
		c1.6,0,3.8-0.3,5.6-1.5c2-1.2,2.7-3.5,2.7-3.5S98,89.8,96.8,87.6z"/>
	
		<radialGradient id="SVGID_1_" cx="97.9751" cy="95.4004" r="23.635" gradientTransform="matrix(1 0 0 -0.4912 -21.218 136.73)" gradientUnits="userSpaceOnUse">
		<stop  offset="0.728" style="stop-color:#454140;stop-opacity:0"/>
		<stop  offset="1" style="stop-color:#454140"/>
	</radialGradient>
	<path class="st1" d="M62.2,103.9v-9.7l28.4-2.3l2.6,3.3c0,0-6,8.7-22.1,8.7H62.2z"/>
	
		<radialGradient id="SVGID_00000107563007809315417670000012725633345678057098_" cx="-479.2458" cy="187.2999" r="6.935" gradientTransform="matrix(-0.9057 0.4238 0.3144 0.6719 -393.3723 163.6332)" gradientUnits="userSpaceOnUse">
		<stop  offset="0.663" style="stop-color:#454140"/>
		<stop  offset="1" style="stop-color:#454140;stop-opacity:0"/>
	</radialGradient>
	<path style="fill:url(#SVGID_00000107563007809315417670000012725633345678057098_);" d="M93.1,90.9c-4.4-6.6,5-9,5-9l0,0
		c-1.6,2.1-2.3,3.9-1.3,5.7c1.2,2.2,4.8,2.6,4.8,2.6S96.8,94.6,93.1,90.9z"/>
	
		<radialGradient id="SVGID_00000116946837660829922720000011307951478045698745_" cx="-193.4083" cy="-314.4859" r="30.046" gradientTransform="matrix(-7.460000e-02 -0.9972 -0.8311 6.220000e-02 -194.4044 -106.3308)" gradientUnits="userSpaceOnUse">
		<stop  offset="0.725" style="stop-color:#454140;stop-opacity:0"/>
		<stop  offset="1" style="stop-color:#454140"/>
	</radialGradient>
	<path style="fill:url(#SVGID_00000116946837660829922720000011307951478045698745_);" d="M103.5,54.7c4.4,10.1,0.3,20.7-3.7,25.1
		c-0.6,0.6-2.9,3-3.4,4.9c0,0-9.6-13.3-12.5-21c-0.6-1.5-1.1-3.1-1.2-4.8c-0.1-1.2,0.1-2.7,0.8-3.7c0.8-1.3,19.5-1.7,19.5-1.7
		C103,53.6,103.5,54.7,103.5,54.7z"/>
	
		<radialGradient id="SVGID_00000078016886157694255960000012475589768701861013_" cx="-200.8788" cy="370.5396" r="30.046" gradientTransform="matrix(7.460000e-02 -0.9972 0.8311 6.220000e-02 -249.8276 -156.3898)" gradientUnits="userSpaceOnUse">
		<stop  offset="0.725" style="stop-color:#454140;stop-opacity:0"/>
		<stop  offset="1" style="stop-color:#454140"/>
	</radialGradient>
	<path style="fill:url(#SVGID_00000078016886157694255960000012475589768701861013_);" d="M21,54.7c-4.4,10.1-0.3,20.7,3.7,25.1
		c0.5,0.6,2.9,3,3.4,4.9c0,0,9.6-13.3,12.5-21c0.6-1.5,1.1-3.1,1.2-4.8c0.1-1.2-0.1-2.7-0.8-3.7c-0.8-1.3-1.8-0.9-3.3-0.9
		c-2.8,0-15-0.7-15.9-0.7C21.8,53.6,21,54.7,21,54.7z"/>
	
		<radialGradient id="SVGID_00000169556792441253363070000015898316182823750811_" cx="-524.736" cy="95.4004" r="23.635" gradientTransform="matrix(-1 0 0 -0.4912 -476.959 136.73)" gradientUnits="userSpaceOnUse">
		<stop  offset="0.728" style="stop-color:#454140;stop-opacity:0"/>
		<stop  offset="1" style="stop-color:#454140"/>
	</radialGradient>
	<path style="fill:url(#SVGID_00000169556792441253363070000015898316182823750811_);" d="M62.3,103.9v-9.7l-28.3-2.3l-2.6,3.3
		c0,0,6,8.8,22,8.8C53.3,103.9,62.3,103.9,62.3,103.9z"/>
	<g>
		<path class="st6" d="M87.5,58.5H37c-5.4,0-9.9,5.1-9.9,11.4s4.4,11.4,9.9,11.4h50.4c5.4,0,9.9-5.1,9.9-11.4S92.9,58.5,87.5,58.5z"
			/>
	</g>
	<path class="st6" d="M62.3,19c-14.1,0-27.2,18.7-27.2,45.6c0,26.7,13.5,40,27.2,40s27.2-13.2,27.2-40C89.4,37.7,76.4,19,62.3,19z"
		/>
	<g>
		<path class="st0" d="M62.3,19.1c-34.9,0-32.6,41.4-32.6,41.4c-0.4,8,1,12.9,1.7,14.9c0.1,0.3,0.6,0.3,0.7,0
			c0.9-4,4.1-17.8,3.8-20.2c0,0,10.6-2.2,20.8-10.2c2.1-1.6,4.3-3,6.7-4c12.7-5.4,15.4,3.8,15.4,3.8s8.8-1.8,11.5,11.3
			c1,4.9,1.7,12.8,2.2,18.2c0,0.4,0.5,0.5,0.7,0.1c0.9-2.2,2.9-6.5,3.1-10.9C96.9,48.8,88.7,19.1,62.3,19.1z"/>
	</g>
	<g>
		
			<radialGradient id="SVGID_00000086655400301204315690000009343513985287300258_" cx="62.2511" cy="-18.6689" r="34.6383" gradientTransform="matrix(1 0 0 0.9806 0 57.515)" gradientUnits="userSpaceOnUse">
			<stop  offset="0" style="stop-color:#FFFF00"/>
			<stop  offset="0.325" style="stop-color:#FFF600"/>
			<stop  offset="0.854" style="stop-color:#FFDE00"/>
			<stop  offset="0.998" style="stop-color:#FFD600"/>
		</radialGradient>
		<path style="fill:url(#SVGID_00000086655400301204315690000009343513985287300258_);" d="M62.7,16c-46.8,0-43.2,46.4-43.2,46.4
			s12.2-10.8,43.5-10.8s42.1,9.8,42.1,9.8S109.4,16,62.7,16z"/>
		
			<linearGradient id="SVGID_00000160190528298347980190000006991181478173892228_" gradientUnits="userSpaceOnUse" x1="62.5761" y1="-45.1917" x2="62.5761" y2="-8.1537" gradientTransform="matrix(1 0 0 1 0 58)">
			<stop  offset="0" style="stop-color:#FFFF00"/>
			<stop  offset="0.446" style="stop-color:#FFF900"/>
			<stop  offset="1" style="stop-color:#FFEA00"/>
		</linearGradient>
		<path style="fill:url(#SVGID_00000160190528298347980190000006991181478173892228_);" d="M73,50.2H52.2V17.1c0-2.8,2.3-5,5-5h10.7
			c2.8,0,5.1,2.3,5.1,5C73,17.1,73,50.2,73,50.2z"/>
		<g>
			<defs>
				<path id="SVGID_00000078733477893312764380000013568319983632558006_" d="M62.7,16c-46.8,0-43.2,46.4-43.2,46.4
					s12.2-10.8,43.5-10.8s42.1,9.8,42.1,9.8S109.4,16,62.7,16z"/>
			</defs>
			<clipPath id="SVGID_00000109749888050367168450000003980667890414901399_">
				<use xlink:href="#SVGID_00000078733477893312764380000013568319983632558006_"  style="overflow:visible;"/>
			</clipPath>
		</g>
		<g>
			<g>
				<defs>
					<path id="SVGID_00000087397663017488424060000006503939127667122312_" d="M62.7,16c-46.8,0-43.2,46.4-43.2,46.4
						s12.2-10.8,43.5-10.8s42.1,9.8,42.1,9.8S109.4,16,62.7,16z"/>
				</defs>
				<clipPath id="SVGID_00000071547481641033282000000003662548077321755020_">
					<use xlink:href="#SVGID_00000087397663017488424060000006503939127667122312_"  style="overflow:visible;"/>
				</clipPath>
			</g>
		</g>
		<path class="st9" d="M107.8,59.1c-0.2-0.4-0.6-0.7-1.1-1C88.6,47.7,62.3,48,62.3,48s-26.4-0.3-44.5,10.1c-0.4,0.2-0.8,0.6-1.1,1
			c-0.5,0.9-1,2.6,0.8,5.1c0,0,11-10.8,44.8-11.5C96.1,53.3,107,64.1,107,64.1C108.8,61.7,108.3,60,107.8,59.1z"/>
	</g>
</g>
<g id="Layer_2">
	<path class="st10" d="M108.6,2.5c3.7,1.2,5.3,3,5.3,6.7c0,11.5,0,23,0,34.6c0,2.3-0.8,4.4-2.8,5.5c-1.6,0.9-1.8,2.1-1.7,3.6
		c0.1,2.1,0.2,4.1-1.6,5.7c-0.8,0.6-0.4,1.7-0.4,2.5c-0.2,13.9,1.1,24.3,3.3,41.4c0.7,5.6,0.7,11.2,2.8,16.4
		c0.7,1.7,0.2,2.9-0.5,4.2c-0.5,0.2-0.9,0.3-1.4,0.5c-2.9-1-3.1-3.1-3.3-5.1c-1.7-14.9-3.6-29.8-5.4-44.8c-0.1-1.2-0.3-2.3-0.6-3.4
		c-0.2-0.7-0.7-1.2-1.5-1c-0.7,0.1-0.9,0.6-1.1,1.2c-0.2,0.9-0.2,1.7-0.2,2.6c0,4.9,0,9.8,0,14.6c0,1.2-0.1,0.5-0.1,3.1
		c0,2.4,0,1.9,0.1,6.4c0,1.4,0,3.9,0,5.3c0,5.3,0,10.5,0,15.8c0,1.9-0.1,3.8-2.5,4.9c-0.4,0-1,0-1.4,0c-2.2-0.9-2.5-2.6-2.5-4.3
		c-0.1-2.3,0-4.5,0-6.8c-0.1-3.3-0.2-6.7-0.1-10c0.1-6.6,0-8.1,0-12.4c0-4.2-0.1-8.5,0.1-12.7c0.1-1.3,0-2.6,0-3.9
		c0-0.9,0-1.7-0.2-2.6c-0.1-0.6-0.4-1.1-1.1-1.2c-0.8-0.1-1.3,0.3-1.5,1c-0.4,1.1-0.5,2.3-0.6,3.4c-1.8,15.1-3.7,30.2-5.4,45.3
		c-0.2,2-0.8,3.9-3.9,4.7c-2.8-2.8-1.2-5.7-0.9-8.4c1.7-15.4,3.7-30.8,5.5-46.2c0.3-3,0.2-6,0.3-9.1c0-0.7,0-1.3-0.6-1.9
		c-2.3-2-0.9-4.8-1.6-7.1c-0.7-2.3-4.2-3-4.2-5.9c0-12.6-0.1-25.2,0.1-37.8c0.1-2.6,2.2-4.5,5-4.9C92.2,2.8,100.4,2.9,108.6,2.5z"/>
	<path class="st11" d="M108.6,2.5c-0.8,0.8-1.8,0.5-2.8,0.5c-6.3,0-12.6,0-18.9,0c-0.9,0-2,0.3-2.8-0.5
		C92.2,2.3,100.4,2.3,108.6,2.5z"/>
	<path class="st12" d="M83.1,26.3c0-5.4,0.1-10.7,0-16.1c0-2.6,1-3.7,3.7-3.7c6.4,0.1,12.9,0.1,19.3,0c2.7,0,3.6,1.2,3.6,3.7
		c0,10.7-0.1,21.5,0,32.2c0,2.7-1,3.9-3.8,3.8c-6.3-0.1-12.7-0.1-19,0c-2.8,0.1-3.8-1.2-3.7-3.9C83.1,37.1,83.1,31.7,83.1,26.3z"/>
	<path class="st13" d="M96.5,50.3c2,0,4.1,0.1,6.1,0c1.9-0.1,2.6,0.3,2.5,1.2c0,0.9-0.8,1.1-2.5,1.1c-4.4,0-8.8,0-13.1,0
		c-1.8,0-2.1-0.4-2.1-1.1c0-0.7,0.1-1.2,2-1.2C91.8,50.4,94.2,50.3,96.5,50.3z"/>
	<path class="st13" d="M96.3,55.3c2.4,0,4.9,0,7.3,0c2.3,0,3,0.2,3,0.8c0,0.6-0.9,0.7-2.9,0.7c-5.2,0-10.4,0-15.7,0
		c-2.1,0-2.5-0.3-2.5-0.7c0-0.4,0.1-0.8,2.4-0.7C90.7,55.4,93.5,55.3,96.3,55.3z"/>
	<path class="st14" d="M96.2,62.9c-1.2,0-2.3,0-3.5,0c-1.8,0.1-2.9-0.1-2.9-1.3c0-1.2,1.1-1.3,2.7-1.2c2.5,0,5.1,0,7.6,0
		c1.7,0,2.7,0.1,2.7,1.3c0,1.1-0.7,1.4-2.6,1.3C98.9,62.8,97.5,62.9,96.2,62.9z"/>
	<path class="st15" d="M102.8,17.7c0,3.7-2.8,6.5-6.5,6.5c-3.8,0-6.6-2.9-6.6-6.7c0.1-3.6,2.9-6.4,6.6-6.3
		C100,11.2,102.8,14,102.8,17.7z"/>
	<path class="st16" d="M102.8,35.3c0,3.6-2.8,6.5-6.5,6.5c-3.6,0-6.5-2.8-6.5-6.4c0-3.8,2.8-6.6,6.6-6.6
		C100,28.8,102.8,31.6,102.8,35.3z"/>
	<path class="st17" d="M98.5,17.6c-0.2,1.3-0.9,2.2-2.2,2.2c-1.2,0-2-0.8-2.2-1.9c-0.2-1.3,0.7-2.2,2-2.4
		C97.5,15.4,98.2,16.3,98.5,17.6z"/>
	<path class="st17" d="M94.1,35.4c0.2-1.3,0.9-2.2,2.2-2.3c1.2-0.1,2,0.8,2.2,1.9c0.2,1.3-0.7,2.3-1.9,2.4
		C95.2,37.6,94.5,36.6,94.1,35.4z"/>
</g>
</svg>
