<?xml version="1.0" encoding="utf-8"?>
<!-- Generator: Adobe Illustrator 26.0.0, SVG Export Plug-In . SVG Version: 6.00 Build 0)  -->
<svg version="1.1" id="Capa_1" xmlns="http://www.w3.org/2000/svg" xmlns:xlink="http://www.w3.org/1999/xlink" x="0px" y="0px"
	 viewBox="0 0 454.2 454.2" style="enable-background:new 0 0 454.2 454.2;" xml:space="preserve">
<style type="text/css">
	.st0{fill:url(#XMLID_00000007421855687353818380000017022653207466796934_);}
	.st1{fill:url(#XMLID_00000160896675878742606390000015363433981905281464_);}
	.st2{fill:url(#SVGID_1_);}
	.st3{fill:url(#SVGID_00000142899063305013860610000007790087709233858489_);}
</style>
<radialGradient id="XMLID_00000070840007225622003070000018268838834788364930_" cx="53.6007" cy="150.7792" r="35.9995" gradientUnits="userSpaceOnUse">
	<stop  offset="0" style="stop-color:#FFFF00"/>
	<stop  offset="0.325" style="stop-color:#FFF600"/>
	<stop  offset="0.854" style="stop-color:#FFDE00"/>
	<stop  offset="0.998" style="stop-color:#FFD600"/>
</radialGradient>
<circle id="XMLID_451_" style="fill:url(#XMLID_00000070840007225622003070000018268838834788364930_);" cx="53.6" cy="150.8" r="36"/>
<radialGradient id="XMLID_00000116233721201699643500000012896575047452039063_" cx="400.6188" cy="149.0283" r="35.9995" gradientUnits="userSpaceOnUse">
	<stop  offset="0" style="stop-color:#FFFF00"/>
	<stop  offset="0.325" style="stop-color:#FFF600"/>
	<stop  offset="0.854" style="stop-color:#FFDE00"/>
	<stop  offset="0.998" style="stop-color:#FFD600"/>
</radialGradient>
<circle id="XMLID_791_" style="fill:url(#XMLID_00000116233721201699643500000012896575047452039063_);" cx="400.6" cy="149" r="36"/>
<radialGradient id="SVGID_1_" cx="357.4129" cy="271.3925" r="79.6296" gradientUnits="userSpaceOnUse">
	<stop  offset="0" style="stop-color:#FFFF00"/>
	<stop  offset="0.325" style="stop-color:#FFF600"/>
	<stop  offset="0.854" style="stop-color:#FFDE00"/>
	<stop  offset="0.998" style="stop-color:#FFD600"/>
</radialGradient>
<path class="st2" d="M276.9,234.2l55.6,33.9c4.7,2.8,10.4,3.2,15.4,0.9l55.8-26.1c-53.2,44.4-50.2,42.3-54,44l-3.5,53.5l7.5,0.8
	h84.2c2.6-36.9,5.2-73.9,7.8-110.8c0.9-13.4-9.3-25-22.7-25.9l-43.3-2.9c-11.8-0.8-22.2,7-25.1,18.1l35.3-6.4L342,235.7l-48.2-29.4
	c-7.7-4.7-17.7-2.3-22.4,5.4C266.7,219.5,269.2,229.5,276.9,234.2z"/>
<radialGradient id="SVGID_00000098942762624946946180000008885861549954788515_" cx="166.7693" cy="272.2692" r="122.0978" gradientUnits="userSpaceOnUse">
	<stop  offset="0" style="stop-color:#FFFF00"/>
	<stop  offset="0.325" style="stop-color:#FFF600"/>
	<stop  offset="0.854" style="stop-color:#FFDE00"/>
	<stop  offset="0.998" style="stop-color:#FFD600"/>
</radialGradient>
<path style="fill:url(#SVGID_00000098942762624946946180000008885861549954788515_);" d="M15.6,341.2h56.7l-2.5-1
	c1.1,0.2,2.8,0.6,5,1h82.7c-2.6-8-10.1-13.6-18.6-13.6h-31.9l-0.6-8.7c-4.5,0.3-2.4,0.1-10.8,0.7c-9.4,0.6-17.8-5-21.2-13.3
	l-24.2-59l37.2,49.1c3.1,4.1,7.9,6.5,13,6.5c0.8,0-1.3,0.1,34.6-2.1c-2.5,2.1-4.1,5.2-4.1,8.7c0,6.2,5,11.2,11.2,11.2h73.7v20.5
	h22.5v-20.5h75.5c6.2,0,11.2-5,11.2-11.2s-5-11.2-11.2-11.2c-4.4,0-140.3,0-143.9,0c7.2-2,12.3-8.9,11.8-16.7
	c-0.6-9-8.3-15.8-17.3-15.3l-1.7,0.1c-5.1-15.8-9.1-28.3-14.3-44.5c-1.7-5.3-7.4-8.2-12.7-6.5c-5.3,1.7-8.2,7.4-6.5,12.7
	c10.6,33,6.1,19.1,12.7,39.6l-33.8,2.1l-32-42.1l25.5,19.9l-1.4-21.5c-0.9-13.4-12.5-23.5-25.9-22.7l-43.3,2.9
	c-13.4,0.9-23.5,12.5-22.7,25.9C13.1,301.4,14.9,329.7,15.6,341.2z"/>
</svg>
