<?xml version="1.0" encoding="utf-8"?>
<!-- Generator: Adobe Illustrator 26.0.0, SVG Export Plug-In . SVG Version: 6.00 Build 0)  -->
<svg version="1.1" id="Layer_1" xmlns="http://www.w3.org/2000/svg" xmlns:xlink="http://www.w3.org/1999/xlink" x="0px" y="0px"
	 viewBox="0 0 512 512" style="enable-background:new 0 0 512 512;" xml:space="preserve">
<style type="text/css">
	.st0{fill:#FAFAFA;}
	.st1{fill:#E5E5E5;}
	.st2{fill:#CCCCCC;}
	.st3{fill:url(#SVGID_1_);}
	.st4{fill:url(#SVGID_00000137093773863103601510000002904454580642076573_);}
	.st5{fill:url(#SVGID_00000170985648972823351340000015329084407736030889_);}
	.st6{fill:url(#SVGID_00000142163950215089621840000006340771267629494680_);}
	.st7{fill:#312D2D;}
	.st8{fill:url(#SVGID_00000025402197955370499730000007335852378819175102_);}
	.st9{fill:url(#SVGID_00000094613562282739929880000008280413484967302844_);}
	.st10{fill:url(#SVGID_00000085232253455609809650000007654624846197311875_);}
	.st11{fill:url(#SVGID_00000142135258968088272220000001630039543637667002_);}
	.st12{fill:url(#SVGID_00000182522811297854652730000009779599013374856629_);}
	.st13{fill:#DDC2A8;}
	.st14{fill:url(#SVGID_00000135681050854287767550000015779432923272665991_);}
	.st15{fill:url(#SVGID_00000057148738234750854520000011811197833804191366_);}
	.st16{fill:#FFEA00;}
	.st17{fill:#FFFFFF;}
	.st18{fill:#202A25;}
</style>
<polygon class="st0" points="504,72.2 8,72.2 8,439.9 430.2,439.9 504,366.1 "/>
<polygon class="st1" points="8,72.2 8,439.9 365.2,439.9 75.4,72.2 "/>
<polygon class="st2" points="430.2,439.9 504,366.1 430.2,366.1 "/>
<radialGradient id="SVGID_1_" cx="161.9375" cy="337.236" r="54.0821" gradientUnits="userSpaceOnUse">
	<stop  offset="0" style="stop-color:#FFFF00"/>
	<stop  offset="0.325" style="stop-color:#FFF600"/>
	<stop  offset="0.854" style="stop-color:#FFDE00"/>
	<stop  offset="0.998" style="stop-color:#FFD600"/>
</radialGradient>
<polygon class="st3" points="196.1,405.6 161.9,380 127.7,405.6 127.7,268.8 196.1,268.8 "/>
<radialGradient id="SVGID_00000139256265244632030100000008365021915430258844_" cx="161.9375" cy="312.117" r="39.0126" gradientUnits="userSpaceOnUse">
	<stop  offset="0" style="stop-color:#FFFF00"/>
	<stop  offset="0.325" style="stop-color:#FFF600"/>
	<stop  offset="0.854" style="stop-color:#FFDE00"/>
	<stop  offset="0.998" style="stop-color:#FFD600"/>
</radialGradient>
<polygon style="fill:url(#SVGID_00000139256265244632030100000008365021915430258844_);" points="196.1,342.4 196.1,268.8 
	127.7,268.8 127.7,340.1 161.9,355.4 "/>
<radialGradient id="SVGID_00000036930787272529054390000004961340955808036248_" cx="161.937" cy="217.52" r="111.165" gradientUnits="userSpaceOnUse">
	<stop  offset="0" style="stop-color:#FFFF00"/>
	<stop  offset="0.325" style="stop-color:#FFF600"/>
	<stop  offset="0.854" style="stop-color:#FFDE00"/>
	<stop  offset="0.998" style="stop-color:#FFD600"/>
</radialGradient>
<polygon style="fill:url(#SVGID_00000036930787272529054390000004961340955808036248_);" points="161.9,106.4 187.7,121.2 
	217.5,121.2 232.4,147 258.2,161.9 258.2,191.7 273.1,217.5 258.2,243.3 258.2,273.1 232.4,288 217.5,313.8 187.7,313.8 
	161.9,328.7 136.1,313.8 106.4,313.8 91.5,288 65.7,273.1 65.7,243.3 50.8,217.5 65.7,191.7 65.7,161.9 91.5,147 106.4,121.2 
	136.1,121.2 "/>
<circle class="st2" cx="161.9" cy="217.5" r="77"/>
<circle class="st0" cx="161.9" cy="217.5" r="57.7"/>
<radialGradient id="SVGID_00000066487091543055194930000012006971415403773338_" cx="161.937" cy="219.3225" r="35.8674" gradientUnits="userSpaceOnUse">
	<stop  offset="0" style="stop-color:#FFFF00"/>
	<stop  offset="0.325" style="stop-color:#FFF600"/>
	<stop  offset="0.854" style="stop-color:#FFDE00"/>
	<stop  offset="0.998" style="stop-color:#FFD600"/>
</radialGradient>
<polygon style="fill:url(#SVGID_00000066487091543055194930000012006971415403773338_);" points="134,196.5 132,260.3 191.9,260.3 
	191.9,206.8 164.2,178.4 "/>
<path d="M512,72.2c0-4.4-3.6-8-8-8H8c-4.4,0-8,3.6-8,8v256.5c0,4.4,3.6,8,8,8s8-3.6,8-8V80.2H496v277.9h-65.7c-4.4,0-8,3.6-8,8v65.7
	H16V380c0-4.4-3.6-8-8-8s-8,3.6-8,8v59.9c0,4.4,3.6,8,8,8h422.2c2.1,0,4.2-0.9,5.7-2.3l73.8-73.8c1.5-1.5,2.3-3.6,2.3-5.7V72.2z
	 M438.2,420.5v-46.4h46.4L438.2,420.5z"/>
<path d="M262.2,155l-23.9-13.8l-13.8-23.9c-1.4-2.5-4.1-4-6.9-4h-27.6l-23.9-13.8c-2.5-1.4-5.5-1.4-8,0L134,113.2h-27.6
	c-2.9,0-5.5,1.5-6.9,4l-13.8,23.9L61.7,155c-2.5,1.4-4,4.1-4,6.9v27.6l-13.8,23.9c-1.4,2.5-1.4,5.5,0,8l13.8,23.9v27.6
	c0,2.9,1.5,5.5,4,6.9l23.9,13.8l13.8,23.9c1.4,2.5,4.1,4,6.9,4h13.4v83.8c0,6.5,7.6,10.3,12.8,6.4l29.4-22l29.4,22
	c5.2,3.9,12.8,0,12.8-6.4v-83.8h13.4c2.9,0,5.5-1.5,6.9-4l13.8-23.9l23.9-13.8c2.5-1.4,4-4.1,4-6.9v-27.6l13.8-23.9
	c1.4-2.5,1.4-5.5,0-8l-13.8-23.9v-27.6C266.2,159.1,264.7,156.4,262.2,155z M166.7,373.6c-2.9-2.1-6.8-2.1-9.6,0l-21.4,16v-66.8
	l22.2,12.8c2.5,1.4,5.6,1.4,8,0l22.2-12.8v66.8L166.7,373.6z M251.3,239.3c-0.7,1.2-1.1,2.6-1.1,4v25.2l-21.8,12.6
	c-1.2,0.7-2.2,1.7-2.9,2.9l-12.6,21.8h-25.2c-1.4,0-2.8,0.4-4,1.1l-21.8,12.6l-21.8-12.6c-1.2-0.7-2.6-1.1-4-1.1H111L98.4,284
	c-0.7-1.2-1.7-2.2-2.9-2.9l-21.8-12.6v-25.2c0-1.4-0.4-2.8-1.1-4L60,217.5l12.6-21.8c0.7-1.2,1.1-2.6,1.1-4v-25.2L95.5,154
	c1.2-0.7,2.2-1.7,2.9-2.9l12.6-21.8h25.2c1.4,0,2.8-0.4,4-1.1l21.8-12.6l21.8,12.6c1.2,0.7,2.6,1.1,4,1.1h25.2l12.6,21.8
	c0.7,1.2,1.7,2.2,2.9,2.9l21.8,12.6v25.2c0,1.4,0.4,2.8,1.1,4l12.6,21.8L251.3,239.3z"/>
<path d="M161.9,132.5c-46.9,0-85,38.1-85,85s38.1,85,85,85s85-38.1,85-85S208.8,132.5,161.9,132.5z M161.9,286.5
	c-38,0-68.9-30.9-68.9-68.9s30.9-68.9,68.9-68.9s68.9,30.9,68.9,68.9S200,286.5,161.9,286.5z"/>
<path d="M167.3,168.8c-3-2.7-7.8-2.7-10.8,0l-16.5,15v-0.5c0-4.4-3.6-8-8-8c-4.4,0-8,3.6-8,8v15.1l-14.5,13.2
	c-3,2.7-3.5,7.4-1.1,10.6c2.8,3.8,8.4,4.4,11.9,1.3l3.7-3.4v40.2c0,4.4,3.6,8,8,8h59.9c4.4,0,8-3.6,8-8v-40.2l3.7,3.4
	c3.5,3.2,9.1,2.6,11.9-1.3c2.4-3.3,1.9-7.9-1.1-10.6L167.3,168.8C167.3,168.8,167.3,168.8,167.3,168.8z M183.9,206.8v45.4H170v-26.2
	c0-4.4-3.6-8-8-8s-8,3.6-8,8v26.2H140v-46.7l21.9-19.9l22,20C183.9,206,183.9,206.4,183.9,206.8z"/>
<path d="M307.3,191.3H392c4.4,0,8-3.6,8-8s-3.6-8-8-8h-84.7c-4.4,0-8,3.6-8,8S302.9,191.3,307.3,191.3z"/>
<path d="M461.2,191.3c4.4,0,8-3.6,8-8s-3.6-8-8-8h-38.5c-4.4,0-8,3.6-8,8s3.6,8,8,8H461.2z"/>
<path d="M307.3,234.1h153.9c4.4,0,8-3.6,8-8s-3.6-8-8-8H307.3c-4.4,0-8,3.6-8,8S302.9,234.1,307.3,234.1z"/>
<path d="M307.3,276.8h53.9c4.4,0,8-3.6,8-8s-3.6-8-8-8h-53.9c-4.4,0-8,3.6-8,8S302.9,276.8,307.3,276.8z"/>
<path d="M469.2,268.8c0-4.4-3.6-8-8-8H392c-4.4,0-8,3.6-8,8s3.6,8,8,8h69.3C465.7,276.8,469.2,273.3,469.2,268.8z"/>
<path d="M345.8,320.7c-4.4,0-8,3.6-8,8c0,4.4,3.6,8,8,8h77c4.4,0,8-3.6,8-8c0-4.4-3.6-8-8-8H345.8z"/>
<path class="st7" d="M683.4,160.8c-1.3-2.3,0.2-4.6,2.8-7.5c4.1-4.5,8.4-15,3.9-25.4c0-0.1-0.9-1.8-0.9-1.9l-1.7-0.1
	c-0.6-0.1-19.6-0.1-38.7-0.1s-38.1,0-38.7,0.1c0,0-2.6,1.9-2.6,1.9c-4.5,10.4-0.2,20.9,3.9,25.4c2.6,2.9,4.1,5.2,2.8,7.5
	c-1.2,2.2-4.8,2.6-4.8,2.6s0.8,2.3,2.7,3.5c1.8,1.2,4.1,1.4,5.6,1.5c0,0,6,8.8,22,8.8h17.9c16.1,0,22-8.8,22-8.8
	c1.6,0,3.8-0.3,5.6-1.5c2-1.2,2.7-3.5,2.7-3.5S684.6,163.1,683.4,160.8z"/>
<radialGradient id="SVGID_00000106118534290993437850000002684074206038412690_" cx="684.5768" cy="529.0678" r="23.635" gradientTransform="matrix(1 0 0 -0.4912 -21.218 423.0404)" gradientUnits="userSpaceOnUse">
	<stop  offset="0.728" style="stop-color:#454140;stop-opacity:0"/>
	<stop  offset="1" style="stop-color:#454140"/>
</radialGradient>
<path style="fill:url(#SVGID_00000106118534290993437850000002684074206038412690_);" d="M648.8,177.2v-9.7l28.3-2.3l2.6,3.3
	c0,0-6,8.7-22,8.7H648.8z"/>
<radialGradient id="SVGID_00000062193469984776750120000010083778216850069386_" cx="-694.9858" cy="459.8077" r="6.935" gradientTransform="matrix(-0.9057 0.4238 0.3144 0.6719 -87.8427 145.2588)" gradientUnits="userSpaceOnUse">
	<stop  offset="0.663" style="stop-color:#454140"/>
	<stop  offset="1" style="stop-color:#454140;stop-opacity:0"/>
</radialGradient>
<path style="fill:url(#SVGID_00000062193469984776750120000010083778216850069386_);" d="M679.7,164.2c-4.4-6.6,5-9,5-9l0,0
	c-1.6,2.1-2.3,3.9-1.3,5.7c1.2,2.2,4.8,2.6,4.8,2.6S683.4,167.9,679.7,164.2z"/>
<radialGradient id="SVGID_00000099627931242682961290000007818981303186658220_" cx="87.519" cy="-605.2626" r="30.046" gradientTransform="matrix(-7.460000e-02 -0.9972 -0.8311 6.220000e-02 171.49 265.1892)" gradientUnits="userSpaceOnUse">
	<stop  offset="0.725" style="stop-color:#454140;stop-opacity:0"/>
	<stop  offset="1" style="stop-color:#454140"/>
</radialGradient>
<path style="fill:url(#SVGID_00000099627931242682961290000007818981303186658220_);" d="M690.1,127.9c4.4,10.1,0.3,20.7-3.7,25.2
	c-0.6,0.6-2.9,3-3.4,4.9c0,0-9.6-13.3-12.5-21c-0.6-1.5-1.1-3.1-1.2-4.8c-0.1-1.2,0.1-2.7,0.8-3.7c0.8-1.3,19.5-1.6,19.5-1.6
	C689.6,126.9,690.1,127.9,690.1,127.9z"/>
<radialGradient id="SVGID_00000172430451873470289670000001920266913111076766_" cx="138.949" cy="1024.0651" r="30.046" gradientTransform="matrix(7.460000e-02 -0.9972 0.8311 6.220000e-02 -231.722 215.1302)" gradientUnits="userSpaceOnUse">
	<stop  offset="0.725" style="stop-color:#454140;stop-opacity:0"/>
	<stop  offset="1" style="stop-color:#454140"/>
</radialGradient>
<path style="fill:url(#SVGID_00000172430451873470289670000001920266913111076766_);" d="M607.6,127.9c-4.4,10.1-0.3,20.7,3.7,25.2
	c0.5,0.6,2.9,3,3.4,4.9c0,0,9.6-13.3,12.5-21c0.6-1.5,1.1-3.1,1.2-4.8c0.1-1.2-0.1-2.7-0.8-3.7c-0.8-1.3-1.9-0.9-3.3-0.9
	c-2.8,0-15-0.7-15.9-0.7C608.4,126.9,607.6,127.9,607.6,127.9z"/>
<radialGradient id="SVGID_00000026842069231387868560000014225992094114324624_" cx="-727.3378" cy="529.0678" r="23.635" gradientTransform="matrix(-1 0 0 -0.4912 -92.959 423.0404)" gradientUnits="userSpaceOnUse">
	<stop  offset="0.728" style="stop-color:#454140;stop-opacity:0"/>
	<stop  offset="1" style="stop-color:#454140"/>
</radialGradient>
<path style="fill:url(#SVGID_00000026842069231387868560000014225992094114324624_);" d="M648.9,177.2v-9.7l-28.3-2.3l-2.6,3.3
	c0,0,6,8.8,22,8.8C639.9,177.2,648.9,177.2,648.9,177.2z"/>
<g>
	<path class="st13" d="M674.1,131.8h-50.4c-5.4,0-9.9,5.1-9.9,11.4s4.4,11.4,9.9,11.4h50.4c5.4,0,9.9-5.1,9.9-11.4
		S679.5,131.8,674.1,131.8z"/>
</g>
<path class="st13" d="M648.9,92.3c-14.1,0-27.2,18.7-27.2,45.6c0,26.7,13.5,40,27.2,40c13.7,0,27.2-13.2,27.2-40
	C676,111,663,92.3,648.9,92.3z"/>
<g>
	<path class="st7" d="M648.9,92.4c-34.9,0-32.6,41.4-32.6,41.4c-0.4,8,1,12.9,1.7,14.9c0.1,0.3,0.6,0.3,0.7,0
		c0.9-4,4.1-17.8,3.8-20.2c0,0,10.6-2.3,20.8-10.2c2.1-1.6,4.3-3,6.7-4c12.7-5.4,15.4,3.8,15.4,3.8s8.8-1.8,11.5,11.3
		c1,4.9,1.7,12.8,2.2,18.2c0,0.4,0.5,0.5,0.7,0.1c0.9-2.2,2.9-6.5,3.1-10.9C683.5,122,675.3,92.4,648.9,92.4z"/>
</g>
<g>
	
		<radialGradient id="SVGID_00000117668267046585066330000002003513236022678198_" cx="648.8529" cy="52.2756" r="34.6383" gradientTransform="matrix(1 0 0 0.9806 0 61.2398)" gradientUnits="userSpaceOnUse">
		<stop  offset="0" style="stop-color:#FFFF00"/>
		<stop  offset="0.325" style="stop-color:#FFF600"/>
		<stop  offset="0.854" style="stop-color:#FFDE00"/>
		<stop  offset="0.998" style="stop-color:#FFD600"/>
	</radialGradient>
	<path style="fill:url(#SVGID_00000117668267046585066330000002003513236022678198_);" d="M649.3,89.3c-46.8,0-43.2,46.4-43.2,46.4
		s12.2-10.8,43.5-10.8c31.3,0,42.1,9.8,42.1,9.8S696,89.3,649.3,89.3z"/>
	
		<linearGradient id="SVGID_00000084503229678247958690000015735807631340570800_" gradientUnits="userSpaceOnUse" x1="649.1778" y1="28.1013" x2="649.1778" y2="65.1393" gradientTransform="matrix(1 0 0 1 0 58)">
		<stop  offset="0" style="stop-color:#FFFF00"/>
		<stop  offset="0.446" style="stop-color:#FFF900"/>
		<stop  offset="1" style="stop-color:#FFEA00"/>
	</linearGradient>
	<path style="fill:url(#SVGID_00000084503229678247958690000015735807631340570800_);" d="M659.6,123.5h-20.8V90.4
		c0-2.8,2.3-5.1,5-5.1h10.7c2.8,0,5,2.3,5,5.1C659.6,90.4,659.6,123.5,659.6,123.5z"/>
	<g>
		<defs>
			<path id="SVGID_00000104683700349480242930000009887667290270815927_" d="M649.3,89.3c-46.8,0-43.2,46.4-43.2,46.4
				s12.2-10.8,43.5-10.8c31.3,0,42.1,9.8,42.1,9.8S696,89.3,649.3,89.3z"/>
		</defs>
		<clipPath id="SVGID_00000154407738169439593770000010714582901694375358_">
			<use xlink:href="#SVGID_00000104683700349480242930000009887667290270815927_"  style="overflow:visible;"/>
		</clipPath>
	</g>
	<g>
		<g>
			<defs>
				<path id="SVGID_00000065755412797860633390000004074024957154587271_" d="M649.3,89.3c-46.8,0-43.2,46.4-43.2,46.4
					s12.2-10.8,43.5-10.8c31.3,0,42.1,9.8,42.1,9.8S696,89.3,649.3,89.3z"/>
			</defs>
			<clipPath id="SVGID_00000066500002801959563670000003654366659014720933_">
				<use xlink:href="#SVGID_00000065755412797860633390000004074024957154587271_"  style="overflow:visible;"/>
			</clipPath>
		</g>
	</g>
	<path class="st16" d="M694.4,132.4c-0.2-0.4-0.6-0.7-1.1-1c-18.1-10.4-44.5-10.1-44.5-10.1s-26.4-0.3-44.5,10.1
		c-0.4,0.2-0.8,0.6-1.1,1c-0.5,0.9-1,2.6,0.8,5.1c0,0,11-10.8,44.8-11.5c33.8,0.7,44.8,11.5,44.8,11.5
		C695.4,135,694.9,133.3,694.4,132.4z"/>
</g>
<g>
	<rect x="659.5" y="114.5" class="st17" width="46.8" height="67"/>
</g>
<g>
	<path class="st18" d="M706.5,183.2h-47.2c-1.2,0-2.1-1-2.1-2.1v-64.4c0-1.2,1-2.1,2.1-2.1H670v4.3h-8.6v60.1h42.9v-60.1h-8.6v-4.3
		h10.7c1.2,0,2.1,1,2.1,2.1V181C708.6,182.2,707.7,183.2,706.5,183.2z"/>
</g>
<g>
	<path class="st18" d="M689.3,123.1h-12.9c-1.2,0-2.1-1-2.1-2.1v-8.6c0-1.2,1-2.1,2.1-2.1h12.9c1.2,0,2.1,1,2.1,2.1v8.6
		C691.5,122.1,690.5,123.1,689.3,123.1z M678.6,118.8h8.6v-4.3h-8.6V118.8z"/>
</g>
<g>
	<g>
		<rect x="674.3" y="127.4" class="st18" width="25.7" height="4.3"/>
	</g>
	<g>
		<rect x="665.7" y="127.4" class="st18" width="4.3" height="4.3"/>
	</g>
	<g>
		<rect x="674.3" y="136" class="st18" width="25.7" height="4.3"/>
	</g>
	<g>
		<rect x="665.7" y="136" class="st18" width="4.3" height="4.3"/>
	</g>
	<g>
		<rect x="674.3" y="144.5" class="st18" width="25.7" height="4.3"/>
	</g>
	<g>
		<rect x="665.7" y="144.5" class="st18" width="4.3" height="4.3"/>
	</g>
	<g>
		<rect x="674.3" y="153.1" class="st18" width="25.7" height="4.3"/>
	</g>
	<g>
		<rect x="665.7" y="153.1" class="st18" width="4.3" height="4.3"/>
	</g>
</g>
<g>
	<rect x="689.3" y="170.3" class="st18" width="10.7" height="4.3"/>
</g>
</svg>
