<?xml version="1.0" encoding="utf-8"?>
<!-- Generator: Adobe Illustrator 26.0.0, SVG Export Plug-In . SVG Version: 6.00 Build 0)  -->
<svg version="1.1" xmlns="http://www.w3.org/2000/svg" xmlns:xlink="http://www.w3.org/1999/xlink" x="0px" y="0px"
	 viewBox="0 0 128 128" style="enable-background:new 0 0 128 128;" xml:space="preserve">
<style type="text/css">
	.st0{fill:#312D2D;}
	.st1{fill:url(#SVGID_1_);}
	.st2{fill:url(#SVGID_00000013187715972568016070000000642032941574834820_);}
	.st3{fill:url(#SVGID_00000145736623800821311620000014537960640099885199_);}
	.st4{fill:url(#SVGID_00000112632375438911338370000002276166996472384401_);}
	.st5{fill:url(#SVGID_00000070100869762736373350000011028101036242816914_);}
	.st6{fill:#DDC2A8;}
	.st7{fill:url(#SVGID_00000037691951869652079850000013402008324244216726_);}
	.st8{fill:url(#SVGID_00000067926797124585670110000002031995369063986873_);}
	.st9{fill:#FFEA00;}
	.st10{fill:#FFFFFF;}
	.st11{fill:#202A25;}
</style>
<g id="Layer_1">
	<path class="st0" d="M96.8,87.6c-1.3-2.3,0.2-4.6,2.8-7.5c4.1-4.5,8.4-15,3.9-25.4c0-0.1-0.9-1.8-0.9-1.9l-1.7-0.1
		c-0.6-0.1-19.6-0.1-38.7-0.1s-38.1,0-38.7,0.1c0,0-2.6,1.9-2.6,2c-4.5,10.4-0.2,20.9,3.9,25.4c2.6,2.9,4.1,5.2,2.8,7.5
		c-1.2,2.2-4.8,2.6-4.8,2.6s0.8,2.3,2.7,3.5c1.8,1.2,4.1,1.4,5.6,1.5c0,0,6,8.8,22,8.8h17.9c16.1,0,22.1-8.8,22.1-8.8
		c1.6,0,3.8-0.3,5.6-1.5c2-1.2,2.7-3.5,2.7-3.5S98,89.8,96.8,87.6z"/>
	
		<radialGradient id="SVGID_1_" cx="97.9751" cy="95.4004" r="23.635" gradientTransform="matrix(1 0 0 -0.4912 -21.218 136.73)" gradientUnits="userSpaceOnUse">
		<stop  offset="0.728" style="stop-color:#454140;stop-opacity:0"/>
		<stop  offset="1" style="stop-color:#454140"/>
	</radialGradient>
	<path class="st1" d="M62.2,103.9v-9.7l28.4-2.3l2.6,3.3c0,0-6,8.7-22.1,8.7H62.2z"/>
	
		<radialGradient id="SVGID_00000014629175411525647860000017833390981490875289_" cx="-479.2458" cy="187.2999" r="6.935" gradientTransform="matrix(-0.9057 0.4238 0.3144 0.6719 -393.3723 163.6332)" gradientUnits="userSpaceOnUse">
		<stop  offset="0.663" style="stop-color:#454140"/>
		<stop  offset="1" style="stop-color:#454140;stop-opacity:0"/>
	</radialGradient>
	<path style="fill:url(#SVGID_00000014629175411525647860000017833390981490875289_);" d="M93.1,90.9c-4.4-6.6,5-9,5-9l0,0
		c-1.6,2.1-2.3,3.9-1.3,5.7c1.2,2.2,4.8,2.6,4.8,2.6S96.8,94.6,93.1,90.9z"/>
	
		<radialGradient id="SVGID_00000042713431940026877960000016063646279546068369_" cx="-193.4083" cy="-314.4859" r="30.046" gradientTransform="matrix(-7.460000e-02 -0.9972 -0.8311 6.220000e-02 -194.4044 -106.3308)" gradientUnits="userSpaceOnUse">
		<stop  offset="0.725" style="stop-color:#454140;stop-opacity:0"/>
		<stop  offset="1" style="stop-color:#454140"/>
	</radialGradient>
	<path style="fill:url(#SVGID_00000042713431940026877960000016063646279546068369_);" d="M103.5,54.7c4.4,10.1,0.3,20.7-3.7,25.1
		c-0.6,0.6-2.9,3-3.4,4.9c0,0-9.6-13.3-12.5-21c-0.6-1.5-1.1-3.1-1.2-4.8c-0.1-1.2,0.1-2.7,0.8-3.7c0.8-1.3,19.5-1.7,19.5-1.7
		C103,53.6,103.5,54.7,103.5,54.7z"/>
	
		<radialGradient id="SVGID_00000146468713360309324610000001212145472903800222_" cx="-200.8788" cy="370.5396" r="30.046" gradientTransform="matrix(7.460000e-02 -0.9972 0.8311 6.220000e-02 -249.8276 -156.3898)" gradientUnits="userSpaceOnUse">
		<stop  offset="0.725" style="stop-color:#454140;stop-opacity:0"/>
		<stop  offset="1" style="stop-color:#454140"/>
	</radialGradient>
	<path style="fill:url(#SVGID_00000146468713360309324610000001212145472903800222_);" d="M21,54.7c-4.4,10.1-0.3,20.7,3.7,25.1
		c0.5,0.6,2.9,3,3.4,4.9c0,0,9.6-13.3,12.5-21c0.6-1.5,1.1-3.1,1.2-4.8c0.1-1.2-0.1-2.7-0.8-3.7c-0.8-1.3-1.8-0.9-3.3-0.9
		c-2.8,0-15-0.7-15.9-0.7C21.8,53.6,21,54.7,21,54.7z"/>
	
		<radialGradient id="SVGID_00000021842071234541478260000001524428942646101913_" cx="-524.736" cy="95.4004" r="23.635" gradientTransform="matrix(-1 0 0 -0.4912 -476.959 136.73)" gradientUnits="userSpaceOnUse">
		<stop  offset="0.728" style="stop-color:#454140;stop-opacity:0"/>
		<stop  offset="1" style="stop-color:#454140"/>
	</radialGradient>
	<path style="fill:url(#SVGID_00000021842071234541478260000001524428942646101913_);" d="M62.3,103.9v-9.7l-28.3-2.3l-2.6,3.3
		c0,0,6,8.8,22,8.8C53.3,103.9,62.3,103.9,62.3,103.9z"/>
	<g>
		<path class="st6" d="M87.5,58.5H37c-5.4,0-9.9,5.1-9.9,11.4s4.4,11.4,9.9,11.4h50.4c5.4,0,9.9-5.1,9.9-11.4S92.9,58.5,87.5,58.5z"
			/>
	</g>
	<path class="st6" d="M62.3,19c-14.1,0-27.2,18.7-27.2,45.6c0,26.7,13.5,40,27.2,40s27.2-13.2,27.2-40C89.4,37.7,76.4,19,62.3,19z"
		/>
	<g>
		<path class="st0" d="M62.3,19.1c-34.9,0-32.6,41.4-32.6,41.4c-0.4,8,1,12.9,1.7,14.9c0.1,0.3,0.6,0.3,0.7,0
			c0.9-4,4.1-17.8,3.8-20.2c0,0,10.6-2.2,20.8-10.2c2.1-1.6,4.3-3,6.7-4c12.7-5.4,15.4,3.8,15.4,3.8s8.8-1.8,11.5,11.3
			c1,4.9,1.7,12.8,2.2,18.2c0,0.4,0.5,0.5,0.7,0.1c0.9-2.2,2.9-6.5,3.1-10.9C96.9,48.8,88.7,19.1,62.3,19.1z"/>
	</g>
	<g>
		
			<radialGradient id="SVGID_00000078027588965871373750000004337007610048087993_" cx="62.2511" cy="-18.6689" r="34.6383" gradientTransform="matrix(1 0 0 0.9806 0 57.515)" gradientUnits="userSpaceOnUse">
			<stop  offset="0" style="stop-color:#FFFF00"/>
			<stop  offset="0.325" style="stop-color:#FFF600"/>
			<stop  offset="0.854" style="stop-color:#FFDE00"/>
			<stop  offset="0.998" style="stop-color:#FFD600"/>
		</radialGradient>
		<path style="fill:url(#SVGID_00000078027588965871373750000004337007610048087993_);" d="M62.7,16c-46.8,0-43.2,46.4-43.2,46.4
			s12.2-10.8,43.5-10.8s42.1,9.8,42.1,9.8S109.4,16,62.7,16z"/>
		
			<linearGradient id="SVGID_00000078756460383428694870000012273037408418566591_" gradientUnits="userSpaceOnUse" x1="62.5761" y1="-45.1917" x2="62.5761" y2="-8.1537" gradientTransform="matrix(1 0 0 1 0 58)">
			<stop  offset="0" style="stop-color:#FFFF00"/>
			<stop  offset="0.446" style="stop-color:#FFF900"/>
			<stop  offset="1" style="stop-color:#FFEA00"/>
		</linearGradient>
		<path style="fill:url(#SVGID_00000078756460383428694870000012273037408418566591_);" d="M73,50.2H52.2V17.1c0-2.8,2.3-5,5-5h10.7
			c2.8,0,5.1,2.3,5.1,5C73,17.1,73,50.2,73,50.2z"/>
		<g>
			<defs>
				<path id="SVGID_00000089571192032551257380000017589689279245389998_" d="M62.7,16c-46.8,0-43.2,46.4-43.2,46.4
					s12.2-10.8,43.5-10.8s42.1,9.8,42.1,9.8S109.4,16,62.7,16z"/>
			</defs>
			<clipPath id="SVGID_00000110453162342645908800000005891336900079292571_">
				<use xlink:href="#SVGID_00000089571192032551257380000017589689279245389998_"  style="overflow:visible;"/>
			</clipPath>
		</g>
		<g>
			<g>
				<defs>
					<path id="SVGID_00000133531358676418226850000017005866068738821015_" d="M62.7,16c-46.8,0-43.2,46.4-43.2,46.4
						s12.2-10.8,43.5-10.8s42.1,9.8,42.1,9.8S109.4,16,62.7,16z"/>
				</defs>
				<clipPath id="SVGID_00000158745971707033800450000000141235147848442761_">
					<use xlink:href="#SVGID_00000133531358676418226850000017005866068738821015_"  style="overflow:visible;"/>
				</clipPath>
			</g>
		</g>
		<path class="st9" d="M107.8,59.1c-0.2-0.4-0.6-0.7-1.1-1C88.6,47.7,62.3,48,62.3,48s-26.4-0.3-44.5,10.1c-0.4,0.2-0.8,0.6-1.1,1
			c-0.5,0.9-1,2.6,0.8,5.1c0,0,11-10.8,44.8-11.5C96.1,53.3,107,64.1,107,64.1C108.8,61.7,108.3,60,107.8,59.1z"/>
	</g>
</g>
<g id="Menu">
	<g>
		<rect x="72.9" y="41.2" class="st10" width="46.8" height="67"/>
	</g>
	<g>
		<path class="st11" d="M119.9,109.9H72.7c-1.2,0-2.1-1-2.1-2.1V43.4c0-1.2,1-2.1,2.1-2.1h10.7v4.3h-8.6v60.1h42.9V45.5h-8.6v-4.3
			h10.7c1.2,0,2.1,1,2.1,2.1v64.4C122,108.9,121.1,109.9,119.9,109.9z"/>
	</g>
	<g>
		<path class="st11" d="M102.7,49.8H89.9c-1.2,0-2.1-1-2.1-2.1v-8.6c0-1.2,1-2.1,2.1-2.1h12.9c1.2,0,2.1,1,2.1,2.1v8.6
			C104.9,48.8,103.9,49.8,102.7,49.8z M92,45.5h8.6v-4.3H92V45.5z"/>
	</g>
	<g>
		<g>
			<rect x="87.7" y="54.1" class="st11" width="25.7" height="4.3"/>
		</g>
		<g>
			<rect x="79.1" y="54.1" class="st11" width="4.3" height="4.3"/>
		</g>
		<g>
			<rect x="87.7" y="62.7" class="st11" width="25.7" height="4.3"/>
		</g>
		<g>
			<rect x="79.1" y="62.7" class="st11" width="4.3" height="4.3"/>
		</g>
		<g>
			<rect x="87.7" y="71.3" class="st11" width="25.7" height="4.3"/>
		</g>
		<g>
			<rect x="79.1" y="71.3" class="st11" width="4.3" height="4.3"/>
		</g>
		<g>
			<rect x="87.7" y="79.8" class="st11" width="25.7" height="4.3"/>
		</g>
		<g>
			<rect x="79.1" y="79.8" class="st11" width="4.3" height="4.3"/>
		</g>
	</g>
	<g>
		<rect x="102.7" y="97" class="st11" width="10.7" height="4.3"/>
	</g>
</g>
</svg>
