<svg xmlns="http://www.w3.org/2000/svg" viewBox="0 0 5 5"><defs><style>.a{fill:#74c48c;}.b{fill:#2978b9;}.c{fill:#fce84e;}</style></defs><path class="a" d="M2.362.373l.154.268.4.693.207.358a.037.037,0,0,1,0,.049l-.188.241c-.019.025-.022.024-.037,0L2.179.741a.05.05,0,0,1,0-.057c.057-.1.113-.2.171-.3L2.358.374Z"/><path class="b" d="M.266,3.991l.261-.449q.12-.205.237-.411l.014-.024L.8,3.149a.643.643,0,0,0,.192.226c.016.012.014.024.005.039l-.285.492c-.015.026-.03.051-.044.077A.029.029,0,0,1,.64,4H.285A.027.027,0,0,1,.266,4Z"/><path class="c" d="M1.021,1.668C1.009,1.71,1,1.753.986,1.8A2.744,2.744,0,0,0,.9,2.227a1.781,1.781,0,0,0-.006.3.846.846,0,0,0,.112.392.441.441,0,0,0,.331.216.707.707,0,0,0,.3-.031A1.629,1.629,0,0,0,2.1,2.866a3.356,3.356,0,0,0,.351-.29,5.533,5.533,0,0,0,.568-.627,9.535,9.535,0,0,0,.629-.9c.013-.022.016-.022.035,0a1.252,1.252,0,0,0,.248.179.253.253,0,0,0,.037.018c.017.006.012.014,0,.024-.116.172-.232.345-.357.512-.155.208-.314.412-.488.6a4.78,4.78,0,0,1-.793.724,2.142,2.142,0,0,1-.587.3,1.029,1.029,0,0,1-.369.053.614.614,0,0,1-.443-.2.787.787,0,0,1-.172-.345,1.225,1.225,0,0,1-.024-.382,2.238,2.238,0,0,1,.212-.746c.019-.041.04-.082.061-.122Z"/><path class="a" d="M4.257,4C4.2,4,4.148,4,4.093,4a.046.046,0,0,1-.047-.027c-.141-.246-.281-.492-.424-.736-.093-.161-.188-.321-.279-.482a.033.033,0,0,0-.033-.019H2.88s-.013,0-.016,0,.005-.01.009-.014c.1-.1.2-.2.293-.306a.053.053,0,0,1,.045-.023l.179,0c.04,0,.08,0,.12,0a.031.031,0,0,1,.027.017q.276.482.554.962.169.3.34.589l.011.016s.009.01.006.018S4.437,4,4.43,4H4.257Z"/><path class="b" d="M1.463,1.923l.282.486.248.43c.017.03.017.033-.013.051a1.717,1.717,0,0,1-.244.128c-.028.012-.031.011-.046-.016l-.213-.37c-.013-.022-.015-.022-.028,0l-.228.4c-.009.016-.017.017-.031.008a.454.454,0,0,1-.17-.2C1.01,2.814,1,2.791.993,2.77a.041.041,0,0,1,0-.039q.231-.4.461-.8Z"/><path class="a" d="M1.911,1.149l.1.164.381.66c.069.12.138.24.208.359a.027.027,0,0,1,0,.037q-.11.112-.225.219c-.015.014-.018,0-.024-.009-.032-.057-.064-.115-.1-.171Q2,1.982,1.753,1.555L1.739,1.53a.065.065,0,0,1,0-.084c.057-.094.11-.189.165-.284Zm.926,1.6.128.222.4.7c.059.1.119.2.179.308C3.556,4,3.553,4,3.533,4H3.189a.033.033,0,0,1-.037-.021c-.061-.107-.122-.213-.184-.319L2.587,3c-.006-.009-.008-.016,0-.024C2.673,2.9,2.757,2.832,2.837,2.752Z"/><path class="b" d="M2.462,4H2.288a.032.032,0,0,1-.033-.018c-.109-.19-.219-.379-.328-.568-.008-.013-.007-.019.007-.025A1.712,1.712,0,0,0,2.2,3.252c.024-.014.028-.014.042.01.136.238.273.475.409.712l0,0C2.661,4,2.661,4,2.637,4Z"/></svg>